<?xml version="1.0" encoding="utf-8"?>
<svg viewBox="0 0 127.4 25" width="127.4px" height="25px" xmlns="http://www.w3.org/2000/svg">
  <path d="M 127.36 0 L 45.605 0 L 42.546 7.23 L 127.36 7.23 L 127.36 0 Z" fill="#FFDD41"/>
  <path d="M 127.36 7.23 L 41.712 7.23 L 39.765 18.631 L 127.36 18.353 L 127.36 7.23 Z" fill="#FBBF2B"/>
  <path d="M 127.361 25.027 L 45.606 25.027 L 42.547 18.353 L 127.361 18.353 L 127.361 25.027 Z" fill="#F6961B"/>
  <path d="M 45.606 0 L 7.509 11.401 L 6.118 11.957 L 42.825 7.23 C 45.825 5.252 45.867 1.085 45.606 0 Z" fill="#EDD9CE"/>
  <path d="M 45.605 25.027 L 7.508 14.46 L 5.562 13.626 L 42.824 18.353 C 46.295 20.766 46.064 23.879 45.605 25.027 Z" fill="#CB8E62"/>
  <path d="M 46.161 12.792 C 46.161 10.567 45.327 8.342 42.824 7.23 L 5.562 11.957 L 5.562 13.904 L 42.824 18.353 C 45.327 17.241 46.161 14.891 46.161 12.792 Z" fill="#DBB69C"/>
  <path d="M 7.508 11.401 L 0 12.83 L 7.508 14.46 L 5.84 12.792 L 7.508 11.401 Z" fill="#2B1F16"/>
</svg>