<?xml version="1.0" encoding="utf-8"?>
<svg viewBox="0 0 24 24" fill="none" xmlns="http://www.w3.org/2000/svg">
  <path d="M 6.901 8.194 L 5.844 9.194 C 5.818 9.218 5.8 9.248 5.791 9.282 C 5.7829999999999995 9.316 5.7829999999999995 9.352 5.794 9.385 C 5.804 9.42 5.824 9.449 5.851 9.472 C 5.878 9.495 5.911 9.51 5.945 9.515 L 9.686 10.063 C 9.805 10.08 9.911 9.983 9.901 9.861 L 9.563 6.095 C 9.549 5.939 9.36 5.869 9.247 5.976 L 8.195 6.971 L 5.15 3.753 C 5.08 3.678 4.96 3.675 4.885 3.746 L 3.865 4.708 C 3.79 4.779 3.786 4.899 3.857 4.973 L 6.901 8.194 Z M 4.666 20.099 C 4.7 20.136 4.746 20.157 4.796 20.159 C 4.845 20.161 4.894 20.144 4.93 20.111 L 8.199 17.121 L 9.177 18.189 C 9.201 18.215 9.231 18.233 9.266 18.243 C 9.299 18.252 9.335 18.252 9.369 18.242 C 9.402 18.232 9.432 18.212 9.455 18.186 C 9.479 18.16 9.494 18.128 9.501 18.093 L 10.108 14.363 C 10.128 14.245 10.031 14.138 9.909 14.146 L 6.138 14.424 C 5.983 14.435 5.909 14.622 6.014 14.736 L 6.997 15.808 L 3.729 18.798 C 3.653 18.867 3.648 18.986 3.717 19.062 L 4.666 20.099 Z M 14.467 18.004 C 14.488 18.158 14.678 18.222 14.786999999999999 18.111 L 15.802 17.077 L 18.964 20.18 C 19 20.214 19.048 20.233 19.097 20.232 C 19.147 20.232 19.195 20.213 19.229 20.177 L 20.214 19.176 C 20.248 19.141 20.267 19.094 20.267 19.044 C 20.266 18.994 20.246 18.947 20.212 18.912 L 17.049 15.807 L 18.069 14.769 C 18.093 14.743 18.11 14.712 18.118 14.678 C 18.126 14.643 18.123 14.608 18.111 14.574 C 18.1 14.541 18.078 14.513 18.051 14.491 C 18.024 14.469 17.991 14.455 17.956 14.451 L 14.197 14.042 C 14.078 14.029 13.975 14.131 13.99 14.253 L 14.467 18.004 Z M 19.262 3.846 C 19.191 3.7720000000000002 19.072 3.77 18.997 3.841 L 15.801 6.909 L 14.798 5.865 C 14.773 5.839 14.743 5.822 14.709 5.813 C 14.674 5.804 14.639 5.805 14.605 5.817 C 14.572 5.827 14.542 5.848 14.52 5.8740000000000006 C 14.497 5.901 14.482 5.933 14.477 5.968 L 13.959 9.711 C 13.942 9.83 14.041 9.935 14.164 9.924 L 17.927 9.556000000000001 C 18.081 9.54 18.151 9.350999999999999 18.043 9.239 L 17.035 8.19 L 20.231 5.125 C 20.265 5.09 20.286 5.043 20.287 4.993 C 20.288 4.943 20.269 4.896 20.236 4.86 L 19.262 3.846 Z" fill="#556181"/>
</svg>