<svg width="24" height="24" viewBox="0 0 24 24" fill="none" xmlns="http://www.w3.org/2000/svg">
<path fill-rule="evenodd" clip-rule="evenodd" d="M11.2493 3.61358C11.4612 2.69408 12.4199 2 13.5705 2C14.5823 2 15.4457 2.53667 15.7834 3.29137C16.0446 3.20745 16.328 3.1615 16.6241 3.1615C17.9301 3.1615 18.9889 4.05573 18.989 5.15888L18.989 5.17877C19.2005 5.12579 19.4246 5.09735 19.6564 5.09735C20.9762 5.09735 22.0357 6.01742 21.9991 7.13173L21.6179 18.7305C21.5581 20.5507 19.7939 22 17.6381 22H12.6241C11.687 22 10.7974 21.6514 10.1922 21.0471L3.58174 14.4464C2.84491 13.7107 2.80382 12.6435 3.4825 11.8689C4.45138 10.7631 6.40228 10.7436 7.40175 11.8299L8.15219 12.6455V5.54615C8.15219 4.44298 9.21099 3.54867 10.5171 3.54867H10.669C10.8698 3.54867 11.0644 3.57126 11.2493 3.61358ZM12.882 5.41814V11.2257H11.2056V5.41814C11.2056 5.41806 11.2056 5.41822 11.2056 5.41814C11.2056 5.16789 10.9654 4.9646 10.669 4.9646H10.5171C10.1368 4.9646 9.82856 5.22497 9.82856 5.54615V13.9679C9.82856 14.8845 8.45524 15.2823 7.78931 14.5585L6.07811 12.6988C5.75983 12.3528 5.13856 12.359 4.83002 12.7112C4.6139 12.9579 4.62698 13.2977 4.86163 13.532L11.472 20.1327C11.7587 20.419 12.1801 20.5841 12.6241 20.5841H17.6381C18.8862 20.5841 19.9076 19.745 19.9422 18.6912L20.3234 7.09245C20.3338 6.77521 20.0322 6.51328 19.6564 6.51328C19.2881 6.51328 18.9895 6.76536 18.9892 7.0764C18.9892 7.07655 18.9892 7.07624 18.9892 7.0764L18.9889 11.6129L17.3125 11.6128L17.3127 5.15901C17.3126 4.83781 17.0043 4.57743 16.6241 4.57743C16.2437 4.57743 15.9355 4.83784 15.9355 5.15906V10.8385H14.2591V3.9975C14.2591 3.67631 13.9508 3.41593 13.5705 3.41593C13.1903 3.41593 12.882 3.67631 12.882 3.9975V5.41814Z" fill="#556181"/>
</svg>
