<svg width="24" height="24" viewBox="0 0 24 24" fill="none" xmlns="http://www.w3.org/2000/svg">
<path fill-rule="evenodd" clip-rule="evenodd" d="M11.0694 9.45365L3.76131 16.634C2.79066 17.5876 2.74164 19.1852 3.6518 20.2023C4.56197 21.2193 6.08667 21.2707 7.05732 20.317L14.4784 13.0257L15.1943 13.7758C15.6647 14.2687 16.4275 14.2687 16.8979 13.7758C17.3684 13.2829 17.3684 12.4836 16.8979 11.9907L16.2368 11.298L20.2387 7.36608C20.633 6.97864 20.8752 6.48491 20.9628 5.96703C21.0909 5.21013 20.8886 4.40159 20.3482 3.79771C19.438 2.78066 17.9133 2.72928 16.9427 3.68297L13.6927 6.87619L13.6877 6.8811L12.8278 7.72597L11.787 6.63544C11.3166 6.1425 10.5538 6.1425 10.0834 6.63544C9.61292 7.12837 9.61292 7.92759 10.0834 8.42052L11.0694 9.45365ZM13.7709 12.2844L11.7768 10.1949L4.44533 17.3983C3.87755 17.9562 3.84887 18.8907 4.38127 19.4856C4.91367 20.0805 5.80553 20.1105 6.37331 19.5527L13.7709 12.2844Z" fill="#556181"/>
</svg>
