<svg width="115" height="38" viewBox="0 0 115 38" fill="none" xmlns="http://www.w3.org/2000/svg">
<path d="M2.5436 16.1272L10.2445 16.1272L10.2451 21.2157L4.5228 21.2157L2.5436 21.2157C1.13845 21.2157 -0.000649405 20.0766 -0.000649422 18.6714C-0.000649439 17.2663 1.13845 16.1272 2.5436 16.1272Z" fill="#3671E3"/>
<path d="M65.9209 0.677368L65.9209 37.5921L46.8346 37.5921L46.8346 0.677368L65.9209 0.677368Z" fill="#85BCFD"/>
<path d="M47.9893 0.677368L47.9893 37.5927L44.3263 37.5927C43.2217 37.5927 42.3263 36.6973 42.3263 35.5927L42.3263 2.67737C42.3263 1.5728 43.2217 0.677368 44.3263 0.677368L47.9893 0.677368Z" fill="#3D97D6"/>
<rect x="115" y="0.861694" width="36.9153" height="49.0792" transform="rotate(90 115 0.861694)" fill="#3A94E7"/>
<path d="M115 32.8602L115 37.5927L65.58 37.5927L65.58 32.8602L115 32.8602Z" fill="#1A7BD6"/>
<rect x="65.9209" y="32.8601" width="4.73274" height="17.9328" transform="rotate(90 65.9209 32.8601)" fill="#6AA1F3"/>
<path d="M115 0.678101L115 5.41037L65.1706 5.41037L65.1706 0.678101L115 0.678101Z" fill="#40AAF7"/>
<rect x="65.9209" y="0.67749" width="4.73274" height="17.9328" transform="rotate(90 65.9209 0.67749)" fill="#93CBFF"/>
<path d="M11.2344 26.9205C10.6821 26.9205 10.2344 26.4728 10.2344 25.9205L10.2344 11.4506C10.2344 10.8983 10.6821 10.4506 11.2344 10.4506L25.5819 10.4506L25.5819 26.9205L11.2344 26.9205Z" fill="#606C7D"/>
<path d="M30.1865 32.4105C26.8728 32.4105 24.1865 29.7242 24.1865 26.4105L24.1865 10.9606C24.1865 7.64694 26.8728 4.96066 30.1865 4.96066L42.3245 4.96066L42.3245 32.4105L30.1865 32.4105Z" fill="#606C7D"/>
<path d="M33.9531 32.4105C39.1054 21.5389 39.0736 15.4547 33.9531 4.96066L42.3245 4.96066L42.3245 32.4105L33.9531 32.4105Z" fill="#465260"/>
</svg>
