<?xml version="1.0" encoding="utf-8"?>
<svg viewBox="0 0 127.3 22.6" width="127.3px" height="22.6px" xmlns="http://www.w3.org/2000/svg">
  <path d="M 127.323 0.685 L 57.695 0.685 L 57.695 6.758 L 127.323 6.758 L 127.323 0.685 Z" fill="#FFDD41"/>
  <path d="M 127.322 6.758 L 57.695 6.758 L 57.695 16.101 L 127.322 16.101 L 127.322 6.758 Z" fill="#FBBF2B"/>
  <path d="M 127.323 21.707 L 57.695 21.707 L 57.695 16.101 L 127.323 16.101 L 127.323 21.707 Z" fill="#F6961B"/>
  <path d="M 4 21.542 C 1.791 21.542 0 19.751 0 17.542 L 0 5.078 C 0 2.869 1.791 1.078 4 1.078 L 23.896 1.078 L 23.896 21.542 L 4 21.542 Z" fill="#F0534E"/>
  <rect x="20.638" y="36.886" width="22.618" height="40.189" rx="2" transform="matrix(0, -1, 1, 0, -16.247999, 43.256001)" fill="#DEDEDE"/>
  <rect x="32.586" y="36.886" width="22.618" height="3.259" transform="matrix(0, -1, 1, 0, -4.300101, 55.204502)" fill="#A2A2A2"/>
  <rect x="39.104" y="36.886" width="22.618" height="3.259" transform="matrix(0, -1, 1, 0, 2.217499, 61.722103)" fill="#A2A2A2"/>
  <rect x="45.621" y="36.886" width="22.618" height="3.259" transform="matrix(0, -1, 1, 0, 8.735101, 68.2397)" fill="#A2A2A2"/>
  <ellipse cx="27.699" cy="32.039" rx="1.616" ry="1.629" transform="matrix(0, -1, 1, 0, -4.340796, 45.4706)" fill="#A2A2A2"/>
  <ellipse cx="27.699" cy="25.577" rx="1.616" ry="1.629" transform="matrix(0, -1, 1, 0, 2.121304, 39.008503)" fill="#A2A2A2"/>
  <ellipse cx="27.699" cy="19.115" rx="1.616" ry="1.629" transform="matrix(0, -1, 1, 0, 8.583501, 32.546303)" fill="#A2A2A2"/>
  <ellipse cx="53.768" cy="32.039" rx="1.616" ry="1.629" transform="matrix(0, -1, 1, 0, 21.728603, 71.540009)" fill="#A2A2A2"/>
  <ellipse cx="53.767" cy="25.577" rx="1.616" ry="1.629" transform="matrix(0, -1, 1, 0, 28.189701, 65.076904)" fill="#A2A2A2"/>
  <ellipse cx="53.767" cy="19.115" rx="1.616" ry="1.629" transform="matrix(0, -1, 1, 0, 34.651897, 58.614697)" fill="#A2A2A2"/>
  <path opacity="0.62" d="M 20.638 7.54 L 20.638 2.001 C 20.638 0.897 21.533 0.001 22.638 0.001 L 58.827 0.001 C 59.931 0.001 60.827 0.897 60.827 2.001 L 60.827 7.54 L 20.638 7.54 Z" fill="#BCBCBC"/>
  <path opacity="0.62" d="M 20.638 15.08 L 20.638 20.619 C 20.638 21.723 21.533 22.619 22.638 22.619 L 58.827 22.619 C 59.931 22.619 60.827 21.723 60.827 20.619 L 60.827 15.08 L 20.638 15.08 Z" fill="#EBEBEB"/>
  <path opacity="0.8" d="M 0 7.54 L 0 5.078 C 0 2.869 1.791 1.078 4 1.078 L 20.638 1.078 L 20.638 7.54 L 0 7.54 Z" fill="#D84647"/>
</svg>