<svg width="24" height="24" viewBox="0 0 24 24" fill="none" xmlns="http://www.w3.org/2000/svg">
<path d="M22.4438 11.8923L14.1375 3.70788C14.1203 3.69059 14.0998 3.67687 14.0773 3.6675C14.0548 3.65814 14.0306 3.65332 14.0063 3.65332C13.9819 3.65332 13.9577 3.65814 13.9352 3.6675C13.9127 3.67687 13.8922 3.69059 13.875 3.70788L8.28047 9.22038C8.24526 9.25531 8.22526 9.30272 8.22483 9.35232C8.22439 9.40191 8.24354 9.44967 8.27813 9.48522L8.28047 9.48756L9.21797 10.411L6.47109 13.1133C6.43589 13.1483 6.41589 13.1957 6.41545 13.2453C6.41501 13.2949 6.43417 13.3426 6.46875 13.3782L6.47109 13.3805L7.39688 14.2923L2.96484 18.6751H1.68984C1.58672 18.6751 1.5 18.7594 1.5 18.8626V20.1563C1.5 20.2594 1.58438 20.3438 1.6875 20.3438H9.77109C9.82031 20.3438 9.86719 20.3251 9.90234 20.2899L11.6859 18.518L12.6328 19.4508C12.65 19.4681 12.6705 19.4819 12.693 19.4912C12.7155 19.5006 12.7397 19.5054 12.7641 19.5054C12.7885 19.5054 12.8126 19.5006 12.8351 19.4912C12.8577 19.4819 12.8781 19.4681 12.8953 19.4508L15.6398 16.7415L16.5797 17.6673C16.5969 17.6845 16.6173 17.6983 16.6399 17.7076C16.6624 17.717 16.6865 17.7218 16.7109 17.7218C16.7353 17.7218 16.7595 17.717 16.782 17.7076C16.8045 17.6983 16.825 17.6845 16.8422 17.6673L22.4367 12.1548C22.5164 12.0844 22.5164 11.9673 22.4438 11.8923ZM9.13594 18.661H5.38125L8.53125 15.5438L10.4086 17.393L9.13594 18.661ZM12.7641 17.2055L8.74688 13.2469L10.3547 11.6626L14.3719 15.6212L12.7641 17.2055ZM16.7133 15.4219L10.5539 9.35397L14.0063 5.95319L20.1656 12.0235L16.7133 15.4219Z" fill="#556181"/>
</svg>
