<svg width="24" height="24" viewBox="0 0 24 24" fill="none" xmlns="http://www.w3.org/2000/svg">
<path d="M17.7703 19.6665C19.9641 17.9509 21.375 15.279 21.375 12.279C21.375 7.10169 17.1914 2.91341 12.0141 2.90638C6.82969 2.89935 2.625 7.09701 2.625 12.279C2.625 15.2134 3.97266 17.8314 6.08438 19.5493C6.16641 19.615 6.28594 19.6009 6.35156 19.5189L7.275 18.3353C7.33828 18.2556 7.32422 18.1408 7.24688 18.0751C7.05703 17.9204 6.87422 17.754 6.69844 17.5783C6.01317 16.8954 5.46712 16.0858 5.09062 15.1947C4.69687 14.2736 4.5 13.2915 4.5 12.279C4.5 11.2665 4.69688 10.2845 5.08828 9.36107C5.46563 8.4681 6.00703 7.66654 6.69609 6.97748C7.38516 6.28841 8.18672 5.74701 9.07969 5.36966C10.0055 4.97826 10.9875 4.78138 12 4.78138C13.0125 4.78138 13.9945 4.97826 14.918 5.36966C15.8109 5.74701 16.6125 6.28841 17.3016 6.97748C17.9906 7.66654 18.532 8.4681 18.9094 9.36107C19.3008 10.2845 19.4977 11.2665 19.4977 12.279C19.4977 13.2915 19.3008 14.2736 18.9094 15.197C18.5329 16.0882 17.9868 16.8977 17.3016 17.5806C17.0836 17.7986 16.8539 18.0025 16.6148 18.19L15.6609 16.9689C15.6393 16.941 15.6103 16.9197 15.5772 16.9076C15.544 16.8954 15.5081 16.8929 15.4736 16.9002C15.4391 16.9076 15.4073 16.9245 15.382 16.9491C15.3567 16.9737 15.3388 17.0049 15.3305 17.0392L14.4023 20.8408C14.3742 20.9579 14.4633 21.0728 14.5828 21.0728L18.4969 21.0915C18.6539 21.0915 18.743 20.9111 18.6445 20.7892L17.7703 19.6665Z" fill="#556181"/>
</svg>
