<svg width="167" height="60" viewBox="0 0 167 60" fill="none" xmlns="http://www.w3.org/2000/svg">
<path d="M1.62983 23.8125L14.1114 23.8125L14.1123 36.1613L6.88643 36.1613C6.50994 36.1613 6.16536 35.9499 5.99486 35.6142L0.73825 25.2654C0.40034 24.6001 0.883674 23.8125 1.62983 23.8125Z" fill="#FF0049"/>
<rect x="80" width="60" height="24" transform="rotate(90 80 0)" fill="#FD85B5"/>
<path d="M58.208 0.00012207L58.208 59.9726L53.1524 59.9726C52.0479 59.9726 51.1524 59.0772 51.1524 57.9726L51.1524 2.00012C51.1524 0.895555 52.0479 0.000121801 53.1524 0.000121849L58.208 0.00012207Z" fill="#485462"/>
<rect x="51.1533" y="8.81946" width="42.3335" height="10.5834" transform="rotate(90 51.1533 8.81946)" fill="#465260"/>
<rect x="51.1533" y="8.81946" width="42.3335" height="1.7639" transform="rotate(90 51.1533 8.81946)" fill="#20324A"/>
<rect x="58.208" y="0.00012207" width="59.9725" height="1.7639" transform="rotate(90 58.208 0.00012207)" fill="#E45890"/>
<path d="M40.5693 8.81946L40.5693 51.153C34.5767 45.1603 26.8262 38.4212 15.1773 38.7558C14.5998 38.7724 14.1109 38.3166 14.1109 37.7389L14.1109 22.3197C14.1109 21.7112 14.6499 21.2453 15.2554 21.3065C26.9525 22.4897 34.5886 15.6546 40.5693 8.81946Z" fill="#475363"/>
<path d="M40.5693 10.5835L40.5693 49.3892C34.9881 43.9076 27.7732 37.7446 16.9393 38.0233C16.3623 38.0381 15.8748 37.5825 15.8748 37.0053L15.8748 23.0519C15.8748 22.4444 16.413 21.979 17.0178 22.0373C27.8928 23.0859 35.0001 16.8347 40.5693 10.5835Z" fill="#545E6C"/>
<rect x="167" width="60" height="89" transform="rotate(90 167 0)" fill="#E73A6F"/>
<rect x="167" y="53" width="7" height="89" transform="rotate(90 167 53)" fill="#D61A53"/>
<path d="M78 52.9167L78 59.9723L58.2082 59.9723L58.2082 52.9167L78 52.9167Z" fill="#F36AA1"/>
<rect x="167" width="7" height="89" transform="rotate(90 167 0)" fill="#F74078"/>
<path d="M78 0L78 7L58.205 7L58.205 -7.25114e-07L78 0Z" fill="#FF93BE"/>
</svg>
