<?xml version="1.0" encoding="utf-8"?>
<!-- Created by UniConvertor 2.0rc5 (https://sk1project.net/) -->
<svg xmlns="http://www.w3.org/2000/svg" height="165.69089pt" viewBox="0 0 234.26147 165.69089" width="234.26147pt" version="1.1" xmlns:xlink="http://www.w3.org/1999/xlink" id="395b3da8-597f-11eb-8d8b-09c593b551f6">

<g>
	<g>
		<path style="fill:#eded03;" d="M 129.0838,0.0001 C 117.005,-0.0113 105.1144,1.3577 94.2615,4.0938 32.0936,20.0775 -9.3024,68.0441 1.8006,111.2305 12.9048,154.4164 72.3028,176.468 134.4705,160.4844 187.6602,146.8091 226.1086,111.5512 228.7498,73.0391 232.1364,69.2235 234.2612,63.6805 234.2615,57.5079 234.2612,46.7032 227.7518,37.8274 219.4474,36.8731 202.4879,12.2289 164.9627,0.0302 129.0838,0.0001 Z" />
		<path style="fill:#acac33;" d="M 20.4685,47.5626 C 3.7973,66.9286 -3.7413,89.6749 1.8006,111.2305 12.9048,154.4164 72.3028,176.468 134.4705,160.4844 169.9899,151.3522 198.9329,132.5949 215.031,109.6719 213.8964,109.6716 212.9397,108.9081 212.6466,107.867 212.5864,107.6532 212.5542,107.4277 212.5542,107.1946 212.5542,106.0588 213.3188,105.1013 214.3613,104.8089 214.549,104.7557 214.7457,104.724 214.9486,104.7168 214.9766,104.7159 215.0044,104.7154 215.0324,104.7154 215.8882,104.7154 216.6427,105.1495 217.0879,105.8095 217.1758,105.9394 217.2516,106.0781 217.3139,106.224 218.4871,104.4027 219.5597,102.5372 220.5603,100.6541 220.5663,100.651 220.5605,100.6543 220.5548,100.6576 220.3456,100.7204 220.1193,100.7528 219.8854,100.7528 218.7501,100.7528 217.7929,99.9888 217.5001,98.947 217.4397,98.7328 217.4073,98.5068 217.4073,98.2733 217.4073,97.1367 218.1731,96.1786 219.2168,95.8869 219.405,95.8336 219.6025,95.802 219.8061,95.7949 219.8301,95.7942 219.8534,95.7939 219.8767,95.7939 219.9001,95.7939 219.9233,95.7942 219.9465,95.7948 220.779,95.8141 221.5105,96.2448 221.9452,96.8915 222.045,97.0403 222.1291,97.2005 222.1951,97.3698 222.997,95.7038 223.7351,94.0089 224.3943,92.2968 224.0461,91.9851 223.7876,91.58 223.6583,91.1207 223.5984,90.9075 223.5664,90.6826 223.5664,90.4503 223.5664,89.3147 224.3308,88.3573 225.373,88.0647 225.5419,88.0172 225.718,87.9872 225.8994,87.9768 227.2053,83.8173 228.0943,79.5885 228.5447,75.3144 228.4375,75.4457 228.3217,75.5621 228.1953,75.6663 228.1943,75.6769 228.2023,75.7015 228.2099,75.7263 L 228.2146,75.7438 C 228.213,75.736 228.2158,75.7457 228.2184,75.7554 228.2786,75.9694 228.3108,76.195 228.3108,76.4282 228.3108,77.5633 227.5471,78.5204 226.5056,78.8135 226.2916,78.8737 226.0659,78.906 225.8327,78.906 224.6976,78.906 223.7405,78.1422 223.4475,77.1006 223.4274,77.0289 223.4104,76.9558 223.3968,76.8816 221.7148,78.5124 219.9658,80.1254 218.1464,81.7024 218.0226,82.076 217.8251,82.3963 217.5695,82.66 217.9084,82.9685 218.1597,83.3672 218.2867,83.8179 218.3466,84.0312 218.3786,84.2561 218.3786,84.4885 218.3786,85.6241 217.6142,86.5815 216.572,86.8741 216.3584,86.9341 216.1332,86.9662 215.9005,86.9662 214.876,86.9662 213.9965,86.344 213.6194,85.4569 211.4964,87.1073 209.2989,88.7267 207.0273,90.2982 207.1605,90.4958 207.2691,90.7242 207.3412,90.9682 207.3444,90.9787 207.3472,90.9891 207.3499,90.9996 207.4097,91.2133 207.4419,91.439 207.4419,91.6722 207.4419,92.8073 206.6782,93.7644 205.6366,94.0575 205.423,94.1175 205.1976,94.1497 204.9648,94.1497 204.1045,94.1497 203.3466,93.711 202.9023,93.0452 201.9533,93.6406 200.9939,94.2318 200.0275,94.8195 199.9749,95.9066 199.2288,96.8063 198.2245,97.0887 198.011,97.1486 197.7859,97.1807 197.5533,97.1807 197.1572,97.1807 196.7828,97.0877 196.4507,96.9223 191.8103,99.5841 186.9153,102.0504 181.8009,104.2999 181.8885,104.4545 181.9638,104.6335 182.0173,104.8216 182.0777,105.0356 182.1099,105.2612 182.1099,105.4944 182.1099,106.6295 181.3461,107.5866 180.3046,107.8797 180.0911,107.9396 179.866,107.9717 179.6334,107.9717 178.5257,107.9717 177.5875,107.2443 177.2706,106.2412 176.0047,106.7346 174.7186,107.2174 173.4337,107.7023 173.2412,107.9994 172.9966,108.246 172.7105,108.4348 172.3193,108.6932 171.8505,108.8437 171.3467,108.8437 171.0907,108.8437 170.8438,108.8049 170.6116,108.7328 169.2252,109.2397 167.8169,109.7394 166.3868,110.2101 166.0903,110.5082 165.7186,110.7313 165.3026,110.8485 165.0887,110.9087 164.8631,110.9409 164.63,110.9409 164.4708,110.9409 164.3152,110.9259 164.1644,110.8972 161.1701,111.8473 158.1193,112.7409 155.004,113.5442 155.2976,113.7286 155.5423,113.9628 155.733,114.2373 L 155.7424,114.2454 C 155.885,114.4505 156.0003,114.6881 156.0758,114.9428 L 156.0783,114.9603 C 156.0767,114.9525 156.0795,114.9622 156.0822,114.9719 156.1423,115.1857 156.1744,115.4112 156.1744,115.6442 156.1744,116.78 155.4098,117.7375 154.3673,118.03 154.1534,118.0902 153.9277,118.1225 153.6945,118.1225 152.5594,118.1225 151.6023,117.3587 151.3093,116.3171 151.2543,116.1198 151.2232,115.9125 151.2192,115.6986 151.0488,115.738 150.8534,115.762 150.6523,115.762 149.9528,115.762 149.3209,115.4719 148.8703,115.0055 146.2134,115.5857 143.5651,116.0958 140.9281,116.5401 140.9532,116.6723 140.9675,116.8244 140.9675,116.9798 140.9675,118.1135 140.2057,119.0695 139.1662,119.3639 138.9522,119.4242 138.7266,119.4565 138.4933,119.4565 137.3582,119.4565 136.4012,118.6927 136.1081,117.6511 136.0761,117.5367 136.0521,117.4189 136.0368,117.2984 127.9085,118.4051 119.9111,118.8877 112.1527,118.7627 112.2641,118.8747 112.365,118.9973 112.4537,119.1289 112.5981,119.3441 112.7098,119.5833 112.7813,119.8391 112.8416,120.0531 112.8738,120.2787 112.8738,120.5119 112.8738,121.647 112.11,122.6041 111.0685,122.8972 110.8545,122.9574 110.6289,122.9897 110.3957,122.9897 109.2606,122.9897 108.3035,122.2259 108.0104,121.1843 107.9503,120.9706 107.9181,120.7451 107.9181,120.5122 107.9181,119.7794 108.2364,119.1208 108.7423,118.6672 100.9234,118.3584 93.3634,117.4362 86.18,115.9366 86.1773,115.9319 86.1807,115.9371 86.1839,115.9423 86.3295,116.159 86.4418,116.398 86.5139,116.6539 86.5741,116.8677 86.6063,117.0933 86.6063,117.3263 86.6063,118.4621 85.8417,119.4196 84.7992,119.7121 84.5861,119.7718 84.3615,119.8037 84.1294,119.8037 83.5055,119.8037 82.9354,119.573 82.4997,119.1922 82.3934,119.247 82.2636,119.2956 82.1293,119.3332 81.9152,119.3935 81.6893,119.4258 81.4559,119.4258 80.3215,119.4258 79.3649,118.6629 79.0712,117.6222 79.0114,117.409 78.9794,117.1842 78.9794,116.9519 78.9794,115.8965 79.6397,114.995 80.5697,114.638 78.4877,114.0909 76.4254,113.4993 74.4029,112.8569 74.462,112.9249 74.5198,112.9994 74.5732,113.0771 L 74.5807,113.0854 C 74.7227,113.2911 74.8375,113.5294 74.9122,113.7847 L 74.9147,113.8022 C 74.9127,113.7937 74.9155,113.8027 74.9182,113.8117 74.9787,114.0258 75.0109,114.2514 75.0109,114.4846 75.0109,115.6197 74.2472,116.5768 73.2056,116.8699 72.9918,116.93 72.7663,116.9622 72.5333,116.9622 71.3975,116.9622 70.44,116.1976 70.1475,115.1551 70.0873,114.9412 70.0551,114.7155 70.0551,114.4823 70.0551,113.3472 70.8188,112.3901 71.8604,112.0971 71.9021,112.0857 71.9442,112.0757 71.9866,112.0667 71.1803,111.7821 70.3637,111.4934 69.5555,111.1947 69.2367,111.8099 68.6849,112.2673 68.0201,112.4542 67.8061,112.5144 67.5805,112.5467 67.3472,112.5467 66.2121,112.5467 65.2551,111.7829 64.962,110.7413 64.9018,110.5275 64.8696,110.3019 64.8696,110.0688 64.8696,109.8228 64.9055,109.5852 64.9723,109.3608 61.4935,107.9053 58.1732,106.2642 55.0206,104.4721 54.1222,104.4597 53.3405,103.9709 52.9156,103.2473 44.4808,98.131 37.3635,91.8677 31.9561,84.5893 31.7307,84.7528 31.4679,84.882 31.1844,84.9619 30.9706,85.0221 30.7451,85.0543 30.512,85.0543 29.3763,85.0543 28.4188,84.2897 28.1263,83.2472 28.0665,83.0341 28.0346,82.8093 28.0346,82.577 28.0346,82.1874 28.1245,81.8187 28.2849,81.4907 27.4073,81.2822 26.7312,80.6191 26.4935,79.7726 26.4337,79.5595 26.4018,79.3348 26.4018,79.1026 26.4018,78.3509 26.7367,77.6773 27.2654,77.2229 26.8789,76.4962 26.5063,75.7628 26.1475,75.0229 26.0075,76.0145 25.2971,76.8093 24.3641,77.0714 24.1501,77.1316 23.9244,77.1639 23.6912,77.1639 22.5561,77.1639 21.5991,76.4001 21.306,75.3585 21.2458,75.1447 21.2137,74.9192 21.2137,74.6862 21.2137,73.5504 21.9783,72.5929 23.0208,72.3005 23.209,72.2471 23.4064,72.2155 23.6101,72.2084 23.6374,72.2075 23.6645,72.2071 23.6917,72.2071 24.1945,72.2071 24.6625,72.357 25.0532,72.6145 24.3965,71.0995 23.8102,69.5603 23.292,67.9896 23.0704,67.7268 22.9008,67.4123 22.804,67.0674 22.7435,66.853 22.7111,66.6267 22.7111,66.3929 22.7111,66.3121 22.715,66.2322 22.7225,66.1534 22.5429,65.5532 22.3711,64.9405 22.212,64.3216 20.7888,58.7859 20.2346,53.1714 20.4698,47.556 L 20.4685,47.5626 Z M 14.9646,57.9708 C 14.9879,57.97 15.0153,57.9695 15.0428,57.9695 15.8994,57.9695 16.6546,58.4045 17.0996,59.0655 17.2447,59.2807 17.357,59.5197 17.4291,59.7756 17.4893,59.9894 17.5215,60.215 17.5215,60.448 17.5215,61.5838 16.7569,62.5413 15.7144,62.8338 15.5004,62.894 15.2748,62.9263 15.0416,62.9263 13.9065,62.9263 12.9494,62.1625 12.6563,61.1209 12.5962,60.9071 12.564,60.6816 12.564,60.4486 12.564,59.3128 13.3286,58.3553 14.3711,58.0629 14.5594,58.0095 14.7568,57.9779 14.9604,57.9708 L 14.9646,57.9708 Z M 12.951,67.6173 C 12.9743,67.6165 13.0016,67.616 13.0291,67.616 13.8857,67.616 14.6409,68.051 15.0859,68.712 15.231,68.9272 15.3433,69.1662 15.4155,69.4221 15.4757,69.6359 15.5078,69.8614 15.5078,70.0944 15.5078,71.2302 14.7432,72.1877 13.7007,72.4802 13.4875,72.54 13.2626,72.572 13.0302,72.572 11.8946,72.572 10.9372,71.8076 10.6446,70.7654 10.5844,70.5515 10.5521,70.3258 10.5521,70.0926 10.5521,68.9575 11.3159,68.0004 12.3574,67.7074 12.5459,67.6546 12.7434,67.6236 12.9471,67.6173 L 12.951,67.6173 Z M 228.8494,71.129 C 228.6377,71.3693 228.4176,71.6066 228.2029,71.8458 228.3873,71.9994 228.546,72.175 228.6777,72.3703 228.7104,72.4187 228.7414,72.4685 228.7706,72.5193 228.8053,72.0643 228.8318,71.5969 228.8494,71.129 L 228.8494,71.129 Z M 8.6131,75.1837 C 8.6328,75.1831 8.6561,75.1828 8.6795,75.1828 8.7028,75.1828 8.7261,75.1831 8.7493,75.1837 9.5814,75.2025 10.3129,75.6324 10.748,76.2784 10.8927,76.4942 11.0043,76.734 11.0757,76.9905 11.1359,77.2045 11.1681,77.4301 11.1681,77.6633 11.1681,78.7984 10.4044,79.7555 9.3628,80.0486 9.149,80.1087 8.9235,80.1409 8.6905,80.1409 7.5547,80.1409 6.5972,79.3763 6.3048,78.3338 6.2445,78.1199 6.2123,77.8941 6.2123,77.6609 6.2123,76.5258 6.976,75.5687 8.0176,75.2757 8.2065,75.2222 8.4046,75.1905 8.609,75.1836 L 8.6131,75.1837 Z M 21.6092,77.6407 C 22.4462,77.6476 23.1835,78.0687 23.6271,78.7088 L 23.6346,78.7169 C 23.7764,78.922 23.8912,79.1596 23.9661,79.4142 23.9699,79.4265 23.9727,79.4383 23.9753,79.4501 24.0345,79.6631 24.0667,79.8886 24.0667,80.1216 24.0667,81.2574 23.302,82.2149 22.2596,82.5074 22.0471,82.5667 21.8231,82.5985 21.5917,82.5985 21.4064,82.5985 21.2257,82.5781 21.052,82.5395 21.1273,82.6609 21.1812,82.8003 21.2223,82.9451 21.2823,83.1585 21.3144,83.3836 21.3144,83.6162 21.3144,84.7511 20.5509,85.708 19.5096,86.0013 19.2956,86.0615 19.0699,86.0938 18.8367,86.0938 17.7016,86.0938 16.7445,85.33 16.4515,84.2884 16.3915,84.075 16.3595,83.8499 16.3595,83.6174 16.3595,82.4824 17.123,81.5255 18.1643,81.2323 18.378,81.1722 18.6034,81.14 18.8362,81.14 19.0201,81.14 19.1994,81.1601 19.3718,81.1981 19.2965,81.0768 19.2426,80.9374 19.2015,80.7925 19.1413,80.5787 19.1091,80.3532 19.1091,80.1202 19.1091,78.9844 19.8738,78.0269 20.9163,77.7345 21.13,77.6743 21.3554,77.6422 21.5884,77.6422 21.5958,77.6422 21.6031,77.6422 21.6105,77.6423 L 21.6092,77.6407 Z M 6.5994,84.8301 C 6.6227,84.8293 6.65,84.8288 6.6775,84.8288 7.5341,84.8288 8.2894,85.2638 8.7343,85.9249 8.8795,86.1401 8.9917,86.3791 9.0639,86.635 9.1241,86.8488 9.1563,87.0743 9.1563,87.3073 9.1563,88.4431 8.3916,89.4006 7.3492,89.6931 7.1352,89.7533 6.9095,89.7856 6.6763,89.7856 5.5412,89.7856 4.5842,89.0218 4.2911,87.9803 4.2309,87.7665 4.1987,87.541 4.1987,87.3079 4.1987,86.1721 4.9634,85.2146 6.0059,84.9222 6.1941,84.8688 6.3915,84.8372 6.5952,84.8301 L 6.5994,84.8301 Z M 26.0935,87.6739 C 26.1168,87.6731 26.1442,87.6726 26.1717,87.6726 27.0283,87.6726 27.7835,88.1076 28.2285,88.7686 L 28.2322,88.7774 C 28.3721,88.9832 28.485,89.2216 28.5579,89.4768 28.6179,89.6901 28.6499,89.9149 28.6499,90.1473 28.6499,91.2829 27.8855,92.2402 26.8433,92.5329 26.6292,92.5932 26.4033,92.6255 26.1699,92.6255 25.0355,92.6255 24.0789,91.8626 23.7852,90.822 23.725,90.6082 23.6928,90.3827 23.6928,90.1497 23.6928,89.0139 24.4575,88.0564 25.4999,87.764 25.6882,87.7106 25.8856,87.679 26.0893,87.6719 L 26.0935,87.6739 Z M 213.8103,91.6622 C 213.8301,91.6616 213.8534,91.6613 213.8767,91.6613 213.9001,91.6613 213.9234,91.6616 213.9465,91.6622 214.779,91.6815 215.5105,92.1121 215.9453,92.7588 216.0897,92.974 216.2014,93.2132 216.2729,93.469 216.3328,93.6823 216.3648,93.9072 216.3648,94.1396 216.3648,95.2752 215.6004,96.2326 214.5582,96.5252 214.3447,96.5851 214.1197,96.6172 213.8871,96.6172 212.7522,96.6172 211.7953,95.8536 211.502,94.8123 211.4419,94.5985 211.4097,94.373 211.4097,94.14 211.4097,93.0042 212.1743,92.0467 213.2168,91.7543 213.4051,91.7009 213.6025,91.6693 213.8061,91.6622 L 213.8103,91.6622 Z M 36.2381,93.6251 C 36.2578,93.6245 36.2811,93.6242 36.3045,93.6242 36.3278,93.6242 36.3511,93.6245 36.3743,93.6251 37.2064,93.6439 37.9379,94.0738 38.373,94.7198 38.5183,94.9355 38.6306,95.1753 38.7026,95.4319 38.7625,95.6452 38.7945,95.8701 38.7945,96.1025 38.7945,97.2381 38.0301,98.1955 36.9878,98.4881 36.7881,98.5443 36.5782,98.5762 36.3615,98.5802 36.5805,98.7491 36.7682,98.948 36.9199,99.1731 37.0652,99.3888 37.1775,99.6286 37.2495,99.8852 37.3094,100.0986 37.3415,100.3237 37.3415,100.5563 37.3415,101.6912 36.578,102.6481 35.5367,102.9414 35.3227,103.0016 35.097,103.0339 34.8638,103.0339 33.7287,103.0339 32.7716,102.2701 32.4786,101.2285 32.4183,101.0146 32.3861,100.7889 32.3861,100.5557 32.3861,99.4206 33.1499,98.4635 34.1914,98.1705 34.3919,98.1146 34.6027,98.0834 34.8202,98.0803 34.3946,97.7544 34.0792,97.301 33.9317,96.7773 33.8712,96.5629 33.8387,96.3366 33.8387,96.1027 33.8387,94.9675 34.6027,94.0103 35.6445,93.7174 35.8328,93.664 36.0302,93.6324 36.2339,93.6253 L 36.2381,93.6251 Z M 15.2576,94.8536 C 16.0946,94.8604 16.832,95.2815 17.2756,95.9216 L 17.281,95.9297 C 17.4234,96.1343 17.5387,96.3712 17.6144,96.6251 17.618,96.6365 17.6208,96.6476 17.6235,96.6587 17.6829,96.872 17.7151,97.0975 17.7151,97.3305 17.7151,98.4663 16.9504,99.4238 15.908,99.7163 15.694,99.7765 15.4683,99.8088 15.2351,99.8088 14.1,99.8088 13.1429,99.045 12.8499,98.0034 12.7897,97.7896 12.7575,97.5641 12.7575,97.3311 12.7575,96.1953 13.5222,95.2378 14.5646,94.9454 14.7805,94.884 15.0083,94.8511 15.2439,94.8511 15.2487,94.8511 15.2536,94.8511 15.2585,94.8512 L 15.2576,94.8536 Z M 24.0818,97.3184 C 24.1051,97.3176 24.1325,97.3171 24.16,97.3171 25.0166,97.3171 25.7718,97.7521 26.2168,98.4131 26.3619,98.6283 26.4742,98.8674 26.5463,99.1233 26.6065,99.3371 26.6387,99.5626 26.6387,99.7956 26.6387,100.9314 25.8741,101.8889 24.8316,102.1814 24.6176,102.2416 24.392,102.2739 24.1587,102.2739 23.0236,102.2739 22.0666,101.5101 21.7735,100.4685 21.7134,100.2547 21.6812,100.0292 21.6812,99.7962 21.6812,98.6604 22.4458,97.7029 23.4883,97.4105 23.6766,97.3571 23.874,97.3255 24.0776,97.3184 L 24.0818,97.3184 Z M 204.8084,98.7637 C 204.8317,98.7629 204.859,98.7624 204.8865,98.7624 205.7431,98.7624 206.4984,99.1974 206.9433,99.8585 207.088,100.0743 207.1996,100.3141 207.271,100.5706 207.3308,100.7839 207.3628,101.0087 207.3628,101.2411 207.3628,102.3767 206.5984,103.334 205.5562,103.6267 205.3435,103.6862 205.1192,103.718 204.8875,103.718 203.7521,103.718 202.7948,102.9539 202.502,101.9119 202.442,101.6984 202.4099,101.4731 202.4099,101.2404 202.4099,100.1061 203.1725,99.1496 204.2129,98.8558 204.4018,98.8023 204.5999,98.7706 204.8043,98.7637 L 204.8084,98.7637 Z M 44.9295,104.0333 C 44.9532,104.0325 44.981,104.032 45.009,104.032 45.8647,104.032 46.6193,104.4661 47.0644,105.1261 47.2104,105.3417 47.3234,105.5814 47.3959,105.8381 47.4559,106.0515 47.488,106.2766 47.488,106.5092 47.488,107.6441 46.7244,108.601 45.6832,108.8943 45.4687,108.9548 45.2424,108.9872 45.0085,108.9872 43.8732,108.9872 42.916,108.2232 42.6231,107.1814 42.563,106.9676 42.5308,106.7421 42.5308,106.5091 42.5308,105.3733 43.2954,104.4158 44.3379,104.1234 44.5257,104.0708 44.7225,104.0398 44.9255,104.0333 L 44.9295,104.0333 Z M 23.949,105.2618 C 24.7857,105.2682 25.523,105.6885 25.967,106.3279 26.1148,106.5405 26.2301,106.7774 26.3058,107.0313 26.3094,107.0427 26.3122,107.0538 26.3149,107.0649 26.3743,107.2782 26.4065,107.5038 26.4065,107.7368 26.4065,108.8726 25.6418,109.8301 24.5994,110.1226 24.3854,110.1828 24.1597,110.2151 23.9265,110.2151 22.7914,110.2151 21.8343,109.4513 21.5413,108.4097 21.4811,108.1959 21.4489,107.9704 21.4489,107.7374 21.4489,106.6016 22.2136,105.6441 23.256,105.3517 23.4698,105.2915 23.6952,105.2594 23.9282,105.2594 23.9356,105.2594 23.9429,105.2594 23.9503,105.2595 L 23.949,105.2618 Z M 193.9724,105.9454 C 194.8091,105.9518 195.5464,106.3721 195.9904,107.0115 196.1382,107.2242 196.2536,107.4611 196.3293,107.715 196.3331,107.7273 196.3359,107.7391 196.3386,107.7509 196.3977,107.9639 196.4299,108.1894 196.4299,108.4224 196.4299,109.5582 195.6653,110.5157 194.6228,110.8082 194.4084,110.8686 194.1823,110.901 193.9486,110.901 192.8127,110.901 191.8551,110.1361 191.5628,109.0934 191.5027,108.8798 191.4706,108.6544 191.4706,108.4216 191.4706,107.2852 192.2361,106.3272 193.2795,106.0353 193.4932,105.9752 193.7187,105.9431 193.9516,105.9431 193.959,105.9431 193.9664,105.9431 193.9737,105.9432 L 193.9724,105.9454 Z M 32.7732,107.7247 C 32.7965,107.7239 32.8239,107.7234 32.8514,107.7234 33.708,107.7234 34.4632,108.1584 34.9082,108.8194 35.0526,109.0346 35.1643,109.2737 35.2358,109.5295 35.2961,109.7435 35.3283,109.9692 35.3283,110.2024 35.3283,111.3375 34.5646,112.2946 33.523,112.5877 33.309,112.6479 33.0834,112.6802 32.8502,112.6802 31.715,112.6802 30.758,111.9164 30.4649,110.8748 30.4048,110.661 30.3726,110.4355 30.3726,110.2025 30.3726,109.0667 31.1372,108.1092 32.1797,107.8168 32.368,107.7634 32.5654,107.7318 32.769,107.7247 L 32.7732,107.7247 Z M 202.7947,108.4102 C 202.8145,108.4096 202.8378,108.4093 202.8611,108.4093 202.8845,108.4093 202.9077,108.4096 202.9309,108.4102 203.7631,108.429 204.4945,108.8589 204.9297,109.5049 L 204.9353,109.5137 C 205.0741,109.7201 205.1857,109.9592 205.2573,110.215 205.3176,110.4291 205.3499,110.655 205.3499,110.8884 205.3499,112.0229 204.5871,112.9795 203.5464,113.2731 203.3326,113.3333 203.1071,113.3655 202.8741,113.3655 201.7383,113.3655 200.7808,112.6008 200.4883,111.5583 200.4281,111.3444 200.3959,111.1187 200.3959,110.8855 200.3959,109.7504 201.1596,108.7933 202.2012,108.5003 202.3894,108.4469 202.5869,108.4153 202.7905,108.4082 L 202.7947,108.4102 Z M 52.2654,110.5684 C 52.2887,110.5676 52.3161,110.5671 52.3436,110.5671 53.2002,110.5671 53.9554,111.0021 54.4004,111.6631 54.5455,111.8783 54.6578,112.1174 54.7299,112.3733 54.7898,112.5866 54.8218,112.8115 54.8218,113.0439 54.8218,114.1795 54.0574,115.1369 53.0152,115.4295 52.8016,115.4895 52.5764,115.5216 52.3437,115.5216 51.2094,115.5216 50.2529,114.7589 49.9591,113.7185 49.8989,113.5047 49.8667,113.2792 49.8667,113.0462 49.8667,111.9104 50.6314,110.9529 51.6738,110.6605 51.8615,110.6073 52.0582,110.5756 52.2611,110.5684 L 52.2654,110.5684 Z M 174.699,111.9434 C 174.7223,111.9426 174.7497,111.9421 174.7772,111.9421 175.6338,111.9421 176.389,112.3771 176.8339,113.0381 176.9786,113.2539 177.0902,113.4937 177.1616,113.7502 177.2215,113.9636 177.2536,114.1887 177.2536,114.4213 177.2536,115.5562 176.4901,116.5131 175.4488,116.8064 175.2348,116.8666 175.0091,116.8989 174.7759,116.8989 173.6408,116.8989 172.6838,116.1351 172.3907,115.0935 172.3304,114.8796 172.2982,114.6539 172.2982,114.4207 172.2982,113.2856 173.062,112.3285 174.1035,112.0355 174.2924,111.982 174.4905,111.9503 174.6949,111.9434 L 174.699,111.9434 Z M 197.0349,115.5098 C 197.0586,115.509 197.0864,115.5085 197.1144,115.5085 197.9702,115.5085 198.7248,115.9426 199.1699,116.6027 199.3152,116.8183 199.4275,117.0581 199.4995,117.3147 199.5597,117.5287 199.592,117.7543 199.592,117.9875 199.592,119.1226 198.8282,120.0797 197.7867,120.3728 197.5729,120.4329 197.3473,120.4651 197.1143,120.4651 195.9786,120.4651 195.021,119.7005 194.7286,118.658 194.6683,118.4441 194.6361,118.2184 194.6361,117.9852 194.6361,116.8501 195.3999,115.893 196.4414,115.6 196.6299,115.5472 196.8274,115.5162 197.0311,115.5099 Z M 162.5388,115.6368 C 162.5586,115.6362 162.5819,115.6359 162.6052,115.6359 162.6286,115.6359 162.6519,115.6362 162.6751,115.6368 163.5083,115.6554 164.2407,116.0862 164.6757,116.7335 164.8202,116.9487 164.9318,117.1878 165.0034,117.4436 165.063,117.6565 165.0949,117.8809 165.0949,118.1128 165.0949,119.2475 164.3316,120.2044 163.2906,120.4978 163.0765,120.5581 162.8506,120.5904 162.6172,120.5904 161.4828,120.5904 160.5262,119.8275 160.2325,118.7869 160.1722,118.573 160.14,118.3473 160.14,118.1141 160.14,116.979 160.9038,116.0219 161.9453,115.7289 162.1336,115.6755 162.331,115.6439 162.5346,115.6368 L 162.5388,115.6368 Z M 62.4119,116.5196 C 62.4352,116.5188 62.4626,116.5183 62.4901,116.5183 63.3467,116.5183 64.1019,116.9533 64.5468,117.6143 64.692,117.8295 64.8043,118.0686 64.8764,118.3245 64.9366,118.5383 64.9688,118.7638 64.9688,118.9968 64.9688,120.1326 64.2041,121.0901 63.1617,121.3826 62.9481,121.4426 62.7229,121.4747 62.4901,121.4747 61.3559,121.4747 60.3994,120.7121 60.1056,119.6717 60.045,119.4572 60.0126,119.2309 60.0126,118.997 60.0126,117.8618 60.7766,116.9046 61.8183,116.6117 62.0066,116.5583 62.204,116.5267 62.4077,116.5196 L 62.4119,116.5196 Z M 143.572,117.6817 C 143.5963,117.6808 143.6248,117.6803 143.6534,117.6803 144.5092,117.6803 145.2638,118.1145 145.709,118.7746 145.8543,118.9902 145.9666,119.23 146.0385,119.4866 146.0985,119.7 146.1305,119.9251 146.1305,120.1576 146.1305,121.2925 145.367,122.2494 144.3257,122.5427 144.1118,122.6029 143.8861,122.6352 143.6529,122.6352 142.5178,122.6352 141.5607,121.8714 141.2677,120.8299 141.2074,120.616 141.1751,120.3902 141.1751,120.157 141.1751,119.0219 141.9389,118.0648 142.9805,117.7718 143.1683,117.7192 143.3651,117.6882 143.5681,117.6817 L 143.572,117.6817 Z M 41.4314,117.7477 C 42.2681,117.7541 43.0054,118.1745 43.4494,118.8138 43.5967,119.027 43.7114,119.2646 43.7864,119.5192 43.7899,119.5306 43.7926,119.5417 43.7953,119.5528 43.8549,119.7663 43.8871,119.992 43.8871,120.2252 43.8871,121.3603 43.1233,122.3174 42.0818,122.6105 41.868,122.6706 41.6425,122.7028 41.4094,122.7028 40.2737,122.7028 39.3161,121.9381 39.0237,120.8956 38.9638,120.6822 38.9317,120.4572 38.9317,120.2247 38.9317,119.0898 39.6952,118.1328 40.7365,117.8396 40.9524,117.7782 41.1802,117.7453 41.4158,117.7453 41.4213,117.7453 41.4269,117.7453 41.4325,117.7454 L 41.4314,117.7477 Z M 69.0486,117.8217 C 69.0719,117.8209 69.0993,117.8204 69.1268,117.8204 69.9834,117.8204 70.7386,118.2554 71.1836,118.9164 71.328,119.1316 71.4397,119.3708 71.5112,119.6266 71.5714,119.8406 71.6037,120.0662 71.6037,120.2994 71.6037,121.4345 70.8399,122.3916 69.7984,122.6847 69.5846,122.7448 69.3591,122.777 69.126,122.777 67.9903,122.777 67.0328,122.0124 66.7403,120.9699 66.6805,120.7566 66.6484,120.5317 66.6484,120.2994 66.6484,119.1638 67.4129,118.2064 68.4551,117.9138 68.6433,117.8604 68.8408,117.8288 69.0444,117.8217 L 69.0486,117.8217 Z M 182.0349,118.478 C 182.0547,118.4774 182.078,118.4771 182.1013,118.4771 182.1247,118.4771 182.148,118.4774 182.1711,118.478 183.0036,118.4973 183.7351,118.9279 184.1699,119.5746 184.3144,119.7898 184.426,120.029 184.4976,120.2848 184.5574,120.4981 184.5894,120.723 184.5894,120.9554 184.5894,122.091 183.825,123.0484 182.7828,123.341 182.5693,123.4009 182.3443,123.433 182.1117,123.433 180.9768,123.433 180.0199,122.6694 179.7266,121.6281 179.6665,121.4143 179.6343,121.1888 179.6343,120.9558 179.6343,119.82 180.3989,118.8625 181.4414,118.5701 181.6297,118.5167 181.8271,118.4851 182.0307,118.478 L 182.0349,118.478 Z M 122.5916,118.9077 C 123.4286,118.9145 124.1659,119.3356 124.6096,119.9757 L 124.617,119.9838 C 124.759,120.1895 124.8738,120.4278 124.9485,120.6831 124.952,120.6945 124.9548,120.7056 124.9575,120.7167 125.017,120.9302 125.0492,121.1558 125.0492,121.389 125.0492,122.5241 124.2855,123.4812 123.2439,123.7743 123.0301,123.8344 122.8046,123.8666 122.5716,123.8666 121.4358,123.8666 120.4783,123.102 120.1859,122.0595 120.1259,121.8461 120.0939,121.621 120.0939,121.3885 120.0939,120.2535 120.8574,119.2966 121.8987,119.0034 122.1145,118.942 122.3424,118.9091 122.5779,118.9091 122.5828,118.9091 122.5877,118.9091 122.5926,118.9092 L 122.5916,118.9077 Z M 89.3357,119.267 C 90.173,119.2743 90.9105,119.6962 91.3537,120.337 L 91.3612,120.3452 C 91.5035,120.5498 91.6188,120.7867 91.6945,121.0406 L 91.697,121.0581 C 91.6955,121.0503 91.6982,121.06 91.7009,121.0697 91.761,121.2835 91.7932,121.509 91.7932,121.742 91.7932,122.8778 91.0285,123.8353 89.9861,124.1278 89.7723,124.1879 89.5467,124.2201 89.3137,124.2201 88.178,124.2201 87.2204,123.4555 86.928,122.413 86.8681,122.1996 86.836,121.9745 86.836,121.742 86.836,120.607 87.5995,119.6501 88.6408,119.3569 88.8546,119.2967 89.08,119.2646 89.313,119.2646 89.3211,119.2646 89.3291,119.2646 89.3371,119.2647 L 89.3357,119.267 Z M 50.2556,120.2124 C 50.279,120.2116 50.3063,120.2111 50.3338,120.2111 51.1904,120.2111 51.9456,120.6461 52.3906,121.3071 52.535,121.5223 52.6467,121.7614 52.7183,122.0172 52.7785,122.2312 52.8107,122.4568 52.8107,122.69 52.8107,123.8251 52.047,124.7822 51.0054,125.0753 50.7915,125.1355 50.5658,125.1678 50.3326,125.1678 49.1975,125.1678 48.2404,124.404 47.9474,123.3625 47.8871,123.1486 47.8548,122.9228 47.8548,122.6896 47.8548,121.5545 48.6186,120.5974 49.6601,120.3044 49.8491,120.2509 50.0472,120.2192 50.2515,120.2123 L 50.2556,120.2124 Z M 165.9119,121.2456 C 165.9352,121.2448 165.9626,121.2443 165.9901,121.2443 166.8467,121.2443 167.6019,121.6793 168.0468,122.3403 168.192,122.5555 168.3042,122.7945 168.3764,123.0504 168.4366,123.2642 168.4688,123.4897 168.4688,123.7227 168.4688,124.8585 167.7041,125.816 166.6617,126.1085 166.4479,126.1686 166.2223,126.2008 165.9893,126.2008 164.8536,126.2008 163.896,125.4362 163.6036,124.3937 163.5434,124.1799 163.5112,123.9544 163.5112,123.7214 163.5112,122.5856 164.2759,121.6281 165.3184,121.3357 165.5068,121.2829 165.7043,121.2519 165.9081,121.2456 L 165.9119,121.2456 Z M 131.4158,121.3725 C 131.439,121.3717 131.4663,121.3712 131.4936,121.3712 131.8798,121.3712 132.2453,121.4596 132.5711,121.6173 132.6096,121.6067 132.6715,121.6044 132.734,121.6044 133.5895,121.6044 134.3439,122.0382 134.789,122.6978 134.9344,122.9134 135.0466,123.1532 135.1186,123.4098 135.1789,123.6238 135.2111,123.8494 135.2111,124.0826 135.2111,125.2177 134.4473,126.1748 133.4058,126.4679 133.1925,126.5277 132.9676,126.5597 132.7352,126.5597 132.3503,126.5597 131.9859,126.4719 131.6608,126.3152 131.6209,126.326 131.5571,126.3284 131.4929,126.3284 130.3576,126.3284 129.4004,125.5644 129.1075,124.5226 129.0473,124.3088 129.0151,124.0833 129.0151,123.8503 129.0151,122.7145 129.7798,121.757 130.8223,121.4646 131.0105,121.4112 131.2079,121.3796 131.4116,121.3725 L 131.4158,121.3725 Z M 98.1599,121.7319 C 98.1832,121.7311 98.2106,121.7306 98.2381,121.7306 99.0947,121.7306 99.8499,122.1656 100.2949,122.8266 100.4393,123.0418 100.551,123.2809 100.6226,123.5367 100.6825,123.7501 100.7145,123.9752 100.7145,124.2078 100.7145,125.3427 99.951,126.2996 98.9097,126.5929 98.6956,126.6532 98.4697,126.6855 98.2364,126.6855 97.1019,126.6855 96.1453,125.9226 95.8517,124.882 95.7914,124.6681 95.7592,124.4424 95.7592,124.2092 95.7592,123.0741 96.5229,122.117 97.5644,121.824 97.7534,121.7705 97.9515,121.7388 98.1558,121.7319 L 98.1599,121.7319 Z M 79.1912,123.7749 C 79.211,123.7743 79.2342,123.774 79.2576,123.774 79.2809,123.774 79.3042,123.7743 79.3274,123.7749 80.16,123.7926 80.8922,124.2219 81.3281,124.8677 81.4732,125.0828 81.5855,125.3218 81.6577,125.5777 81.7179,125.7917 81.7502,126.0173 81.7502,126.2505 81.7502,127.3856 80.9864,128.3427 79.9449,128.6358 79.7309,128.696 79.5052,128.7283 79.272,128.7283 78.1369,128.7283 77.1799,127.9645 76.8868,126.923 76.8265,126.7091 76.7943,126.4833 76.7943,126.2501 76.7943,125.115 77.5581,124.1579 78.5996,123.8649 78.7872,123.8117 78.984,123.78 79.1869,123.7728 L 79.1912,123.7749 Z M 150.9099,124.2163 C 150.9336,124.2155 150.9615,124.215 150.9894,124.215 151.8452,124.215 152.5998,124.6491 153.0449,125.3091 L 153.0486,125.3178 C 153.1887,125.5241 153.3016,125.7632 153.3744,126.0191 153.4343,126.2324 153.4663,126.4573 153.4663,126.6897 153.4663,127.8253 152.7019,128.7827 151.6597,129.0753 151.4457,129.1355 151.22,129.1678 150.9868,129.1678 149.8517,129.1678 148.8947,128.404 148.6016,127.3624 148.5414,127.1486 148.5092,126.9231 148.5092,126.6901 148.5092,125.5543 149.2739,124.5968 150.3164,124.3044 150.5048,124.2516 150.7024,124.2206 150.9061,124.2143 L 150.9099,124.2163 Z M 192.1775,124.4331 C 192.2014,124.4322 192.2295,124.4318 192.2576,124.4318 193.1142,124.4318 193.8695,124.8667 194.3144,125.5278 L 194.3181,125.5366 C 194.4582,125.7429 194.5711,125.982 194.6439,126.2379 194.7041,126.4517 194.7363,126.6772 194.7363,126.9102 194.7363,128.046 193.9717,129.0035 192.9292,129.296 192.7152,129.3562 192.4895,129.3885 192.2563,129.3885 191.1213,129.3885 190.1642,128.6247 189.8711,127.5832 189.8109,127.3694 189.7787,127.1439 189.7787,126.9108 189.7787,125.775 190.5434,124.8175 191.5859,124.5251 191.7735,124.4719 191.9702,124.4402 192.1732,124.433 L 192.1775,124.4331 Z M 117.6541,124.5737 C 117.6774,124.5729 117.7048,124.5724 117.7323,124.5724 118.5889,124.5724 119.3441,125.0074 119.789,125.6684 119.9335,125.8836 120.0451,126.1227 120.1167,126.3785 120.1768,126.5923 120.209,126.8179 120.209,127.0509 120.209,128.1867 119.4444,129.1442 118.4019,129.4367 118.1885,129.4966 117.9634,129.5287 117.7309,129.5287 116.596,129.5287 115.639,128.7651 115.3458,127.7238 115.2856,127.51 115.2534,127.2845 115.2534,127.0515 115.2534,125.9157 116.0181,124.9582 117.0605,124.6658 117.2488,124.6124 117.4462,124.5808 117.6499,124.5737 L 117.6541,124.5737 Z M 58.2107,125.0034 C 59.0477,125.0102 59.7851,125.4313 60.2287,126.0714 L 60.2362,126.0795 C 60.378,126.2846 60.4927,126.5222 60.5677,126.7768 60.5715,126.7891 60.5742,126.8009 60.5769,126.8127 60.6361,127.0259 60.6684,127.2515 60.6684,127.4847 60.6684,128.6198 59.9046,129.5769 58.8631,129.87 58.6493,129.9301 58.4237,129.9623 58.1907,129.9623 57.055,129.9623 56.0975,129.1977 55.805,128.1552 55.7448,127.9413 55.7125,127.7156 55.7125,127.4824 55.7125,126.3473 56.4763,125.3902 57.5178,125.0972 57.7316,125.037 57.957,125.0049 58.1899,125.0049 58.1973,125.0049 58.2047,125.0049 58.2121,125.005 L 58.2107,125.0034 Z M 171.199,125.6596 C 172.0356,125.6676 172.7722,126.0892 173.215,126.7295 L 173.2225,126.7377 C 173.365,126.9428 173.4804,127.1804 173.5559,127.435 L 173.5584,127.4525 C 173.5561,127.4434 173.5588,127.4517 173.5615,127.46 173.6223,127.6739 173.6545,127.8994 173.6545,128.1324 173.6545,129.2682 172.8899,130.2257 171.8474,130.5182 171.6334,130.5784 171.4078,130.6107 171.1746,130.6107 170.0395,130.6107 169.0824,129.8469 168.7893,128.8053 168.7292,128.5915 168.697,128.366 168.697,128.133 168.697,126.9972 169.4616,126.0397 170.5041,125.7473 170.7179,125.6871 170.9433,125.655 171.1763,125.655 171.1843,125.655 171.1924,125.655 171.2004,125.6551 L 171.199,125.6596 Z M 101.531,127.3393 C 101.5508,127.3387 101.5741,127.3384 101.5974,127.3384 101.6208,127.3384 101.6441,127.3387 101.6672,127.3393 102.4994,127.3581 103.2309,127.788 103.666,128.434 103.8113,128.6497 103.9236,128.8895 103.9956,129.1461 104.0557,129.3599 104.0879,129.5854 104.0879,129.8184 104.0879,130.9542 103.3233,131.9117 102.2808,132.2042 102.067,132.2643 101.8415,132.2965 101.6085,132.2965 100.4727,132.2965 99.5152,131.5319 99.2227,130.4894 99.1626,130.2756 99.1304,130.0501 99.1304,129.8171 99.1304,128.6813 99.895,127.7238 100.9375,127.4314 101.1258,127.378 101.3232,127.3464 101.5268,127.3393 L 101.531,127.3393 Z M 67.0349,127.4682 C 67.0582,127.4674 67.0856,127.4669 67.1131,127.4669 67.9697,127.4669 68.7249,127.9019 69.1699,128.5629 69.315,128.7781 69.4273,129.0172 69.4995,129.2731 69.5596,129.4869 69.5918,129.7124 69.5918,129.9454 69.5918,131.0812 68.8272,132.0387 67.7847,132.3312 67.5709,132.3913 67.3454,132.4235 67.1124,132.4235 65.9766,132.4235 65.0191,131.6589 64.7266,130.6164 64.6665,130.4026 64.6343,130.1771 64.6343,129.944 64.6343,128.8082 65.3989,127.8507 66.4414,127.5583 66.6299,127.5055 66.8274,127.4745 67.0311,127.4682 L 67.0349,127.4682 Z M 180.0213,128.1245 C 180.041,128.1239 180.0643,128.1236 180.0877,128.1236 180.111,128.1236 180.1343,128.1239 180.1575,128.1245 180.9896,128.1433 181.7211,128.5732 182.1562,129.2192 182.3015,129.4349 182.4138,129.6747 182.4858,129.9313 182.5454,130.1442 182.5773,130.3686 182.5773,130.6005 182.5773,131.7352 181.814,132.6921 180.773,132.9854 180.5584,133.0461 180.3319,133.0786 180.0978,133.0786 178.9632,133.0786 178.0065,132.3155 177.713,131.2746 177.6528,131.0608 177.6206,130.8353 177.6206,130.6023 177.6206,129.4665 178.3853,128.509 179.4277,128.2166 179.616,128.1632 179.8134,128.1316 180.0171,128.1245 L 180.0213,128.1245 Z M 161.0545,130.1674 C 161.0778,130.1666 161.1052,130.1661 161.1327,130.1661 161.9892,130.1661 162.7444,130.6011 163.1894,131.2621 163.3346,131.4773 163.4468,131.7164 163.519,131.9723 163.5792,132.1861 163.6114,132.4116 163.6114,132.6446 163.6114,133.7804 162.8467,134.7379 161.8042,135.0304 161.5907,135.0904 161.3654,135.1225 161.1327,135.1225 159.9985,135.1225 159.042,134.3599 158.7482,133.3195 158.6876,133.105 158.6551,132.8787 158.6551,132.6448 158.6551,131.5096 159.4191,130.5524 160.4609,130.2595 160.6492,130.2061 160.8466,130.1745 161.0503,130.1674 L 161.0545,130.1674 Z M 86.5271,130.31 C 86.5469,130.3094 86.5702,130.3091 86.5935,130.3091 86.6169,130.3091 86.6401,130.3094 86.6633,130.31 87.4962,130.3282 88.2285,130.7582 88.664,131.4047 L 88.6697,131.4135 C 88.8092,131.6199 88.9214,131.8589 88.9936,132.1148 89.0535,132.3281 89.0855,132.553 89.0855,132.7854 89.0855,133.921 88.3211,134.8784 87.2789,135.171 87.0649,135.2312 86.8392,135.2635 86.606,135.2635 85.4709,135.2635 84.5138,134.4997 84.2208,133.4581 84.1606,133.2443 84.1284,133.0188 84.1284,132.7858 84.1284,131.65 84.8931,130.6925 85.9355,130.4001 86.1232,130.3469 86.3199,130.3152 86.5228,130.308 L 86.5271,130.31 Z M 127.7967,130.5268 C 127.8164,130.5262 127.8397,130.5259 127.8631,130.5259 127.8864,130.5259 127.9097,130.5262 127.9329,130.5268 128.7658,130.545 129.4981,130.975 129.9336,131.6215 L 129.9372,131.6303 C 130.0774,131.8366 130.1903,132.0757 130.263,132.3316 130.3233,132.5454 130.3554,132.7709 130.3554,133.0039 130.3554,134.1397 129.5908,135.0972 128.5483,135.3897 128.3345,135.4498 128.109,135.482 127.876,135.482 126.7402,135.482 125.7827,134.7174 125.4902,133.6749 125.4301,133.4611 125.3979,133.2356 125.3979,133.0026 125.3979,131.8668 126.1626,130.9093 127.205,130.6169 127.3927,130.5637 127.5894,130.532 127.7923,130.5248 L 127.7967,130.5268 Z M 140.074,131.3959 C 140.9107,131.4023 141.648,131.8227 142.092,132.4621 142.2398,132.6748 142.3551,132.9117 142.4308,133.1656 142.4347,133.1779 142.4375,133.1897 142.4401,133.2015 142.4993,133.4145 142.5315,133.64 142.5315,133.873 142.5315,135.0088 141.7668,135.9663 140.7244,136.2588 140.5105,136.3189 140.285,136.3511 140.052,136.3511 138.9162,136.3511 137.9587,135.5865 137.6663,134.544 137.6061,134.3302 137.5739,134.1047 137.5739,133.8716 137.5739,132.7358 138.3386,131.7783 139.381,131.4859 139.5948,131.4257 139.8202,131.3936 140.0532,131.3936 140.0606,131.3936 140.0679,131.3936 140.0753,131.3937 L 140.074,131.3959 Z M 106.8181,131.7534 C 107.655,131.7619 108.3917,132.1842 108.8341,132.8252 L 108.8416,132.8334 C 108.9842,133.0385 109.0995,133.2761 109.175,133.5307 L 109.1775,133.5482 C 109.1752,133.5391 109.1779,133.5474 109.1806,133.5557 109.2415,133.7696 109.2737,133.9951 109.2737,134.2281 109.2737,135.3639 108.509,136.3214 107.4665,136.6139 107.2526,136.6741 107.0269,136.7064 106.7937,136.7064 105.6586,136.7064 104.7015,135.9426 104.4085,134.901 104.3483,134.6872 104.3161,134.4617 104.3161,134.2287 104.3161,133.0929 105.0808,132.1354 106.1232,131.843 106.3391,131.7816 106.5669,131.7487 106.8025,131.7487 106.8081,131.7487 106.8136,131.7487 106.8192,131.7488 L 106.8181,131.7534 Z M 148.8982,133.8608 C 148.9215,133.86 148.9489,133.8595 148.9764,133.8595 149.833,133.8595 150.5882,134.2945 151.0332,134.9555 151.1783,135.1707 151.2906,135.4098 151.3627,135.6657 151.4229,135.8795 151.4551,136.105 151.4551,136.338 151.4551,137.4738 150.6905,138.4313 149.648,138.7238 149.4342,138.7839 149.2087,138.8161 148.9756,138.8161 147.8399,138.8161 146.8824,138.0515 146.5899,137.009 146.5301,136.7957 146.4981,136.5708 146.4981,136.3385 146.4981,135.2029 147.2625,134.2455 148.3047,133.9529 148.493,133.8995 148.6904,133.8679 148.894,133.8608 L 148.8982,133.8608 Z M 115.6404,134.2202 C 115.6637,134.2194 115.6911,134.2189 115.7186,134.2189 116.5752,134.2189 117.3304,134.6539 117.7754,135.3149 117.9205,135.5301 118.0328,135.7691 118.1049,136.025 118.1649,136.2384 118.1969,136.4635 118.1969,136.6961 118.1969,137.831 117.4334,138.7879 116.3921,139.0812 116.1775,139.1418 115.951,139.1743 115.717,139.1743 114.5824,139.1743 113.6256,138.4112 113.3321,137.3703 113.2719,137.1565 113.2398,136.931 113.2398,136.698 113.2398,135.5622 114.0044,134.6047 115.0469,134.3123 115.2351,134.2589 115.4326,134.2273 115.6362,134.2202 L 115.6404,134.2202 Z M 96.6736,136.2631 C 96.6969,136.2623 96.7243,136.2618 96.7517,136.2618 97.6084,136.2618 98.3636,136.6968 98.8086,137.3579 98.9537,137.5731 99.066,137.8121 99.1381,138.068 99.1983,138.2818 99.2305,138.5073 99.2305,138.7403 99.2305,139.8761 98.4659,140.8336 97.4234,141.1261 97.21,141.186 96.9849,141.2181 96.7524,141.2181 95.6174,141.2181 94.6605,140.4545 94.3673,139.4132 94.307,139.1993 94.2748,138.9736 94.2748,138.7404 94.2748,137.6053 95.0385,136.6482 96.0801,136.3552 96.2683,136.3018 96.4658,136.2702 96.6694,136.2631 L 96.6736,136.2631 Z M 75.6931,137.4917 C 76.5298,137.4981 77.2671,137.9185 77.7111,138.5578 77.8591,138.771 77.9745,139.0086 78.05,139.2632 78.0538,139.2755 78.0566,139.2873 78.0593,139.2991 78.1181,139.5116 78.1501,139.7364 78.1501,139.9688 78.1501,141.1043 77.3857,142.0617 76.3435,142.3544 76.1295,142.4146 75.9038,142.4469 75.6706,142.4469 74.5356,142.4469 73.5785,141.6831 73.2854,140.6416 73.2252,140.4278 73.193,140.2023 73.193,139.9692 73.193,138.8334 73.9577,137.8759 75.0002,137.5835 75.2139,137.5233 75.4394,137.4912 75.6723,137.4912 75.6797,137.4912 75.6871,137.4912 75.6944,137.4913 L 75.6931,137.4917 Z M 84.5174,139.9545 C 84.5371,139.9539 84.5604,139.9536 84.5838,139.9536 84.6071,139.9536 84.6304,139.9539 84.6536,139.9545 85.4858,139.9734 86.2172,140.4033 86.6523,141.0493 86.7976,141.265 86.9099,141.5048 86.9819,141.7614 87.0421,141.9752 87.0742,142.2007 87.0742,142.4337 87.0742,143.5695 86.3096,144.527 85.2671,144.8195 85.0533,144.8796 84.8278,144.9118 84.5948,144.9118 83.459,144.9118 82.5015,144.1472 82.209,143.1047 82.1489,142.8909 82.1167,142.6654 82.1167,142.4323 82.1167,141.2965 82.8813,140.339 83.9238,140.0466 84.1121,139.9932 84.3095,139.9616 84.5131,139.9545 L 84.5174,139.9545 Z" />
	</g>
</g>
</svg>