<?xml version="1.0" encoding="utf-8"?>
<!-- Generator: Adobe Illustrator 15.0.0, SVG Export Plug-In . SVG Version: 6.00 Build 0)  -->
<!DOCTYPE svg PUBLIC "-//W3C//DTD SVG 1.1//EN" "http://www.w3.org/Graphics/SVG/1.1/DTD/svg11.dtd">
<svg version="1.1" xmlns="http://www.w3.org/2000/svg" xmlns:xlink="http://www.w3.org/1999/xlink" x="0px" y="0px"
	 width="715.77px" height="835.842px" viewBox="0 0 715.77 835.842" enable-background="new 0 0 715.77 835.842"
	 xml:space="preserve">
<g id="Layer_1">
	<path fill="#ED704D" d="M665.322,642.211c-45.841,80.706-167.103,135.521-235.305,161.013
		c-45.908,17.157-61.546,25.599-61.698,25.682c-0.236,0.212-8.463,6.937-15.051,6.937c-2.353,0-4.228-0.853-5.572-2.533
		c-3.923-4.902-49.566-22.901-86.243-37.362c-14.723-5.805-28.627-11.288-38.23-15.288
		c-29.076-12.115-92.424-47.158-145.427-101.653C27.614,627.408,2.188,558.319,0.066,467.789
		c-1.072-45.772,10.951-92.753,34.771-135.858c24.977-45.199,61.491-83.007,105.597-109.335
		C190,193.008,242.329,186.797,277.5,186.797c33.644,0,56.823,5.591,57.054,5.647l1.604,0.394l-1.395,0.886
		c-39.777,25.271-105.486,100.886-127.03,189.872c-18.256,75.408,4.822,166.003,12.051,191.153
		c-0.925-12.144-2.597-42.729-3.573-112.37c-1.479-105.487,77.177-203.434,86.15-214.255c16.183-19.514,47.271-43.434,60.429-48.603
		c1.319-0.519,2.84-1.209,4.601-2.008c9.959-4.521,28.494-12.936,63.261-12.936c20.625,0,44.41,2.962,70.693,8.803
		c91.275,20.284,165.241,87.378,197.861,179.477C729.559,458.563,718.16,549.188,665.322,642.211z"/>
</g>
<g id="Layer_2">
	<path fill="#79512E" d="M363.752,130.881c-0.349,22.649-1.4,59.897-1.41,60.271l-0.008,0.297l-0.218,0.2
		c-0.152,0.143-3.809,3.478-8.624,3.478c-2.859,0-5.502-1.175-7.855-3.491l-0.199-0.196l-0.011-0.279
		c-0.031-0.813-3.449-81.941-27.762-143.827c-0.3-0.442-1.605-2.537-0.775-4.493c0.65-1.533,2.395-2.504,5.183-2.884
		c7.416-1.012,22.827-2.644,27.379-2.825c0.533-0.021,1.079-0.035,1.624-0.035c2.133,0,8.624,0,8.624,5.32
		c0,1.219,0.353,7.02,0.841,15.047C361.837,78.756,364.005,114.396,363.752,130.881z"/>
</g>
<g id="Layer_3">
	<path fill="#79AE5A" d="M549.409,3.505c-0.061,0.151-6.555,15.36-55.005,30.131c-26.622,8.116-54.538,17.691-77.547,37.438
		c-27.63,23.714-42.385,57.171-45.11,102.281l-0.032,0.533l0.504,0.176c0.381,0.133,9.514,3.251,24.834,3.251
		c0.003,0,0.003,0,0.005,0c16.448,0,42.224-3.755,71.613-21.64c29.674-18.069,48.55-35.882,61.205-57.758
		c14.018-24.229,20.657-54.147,20.893-94.15L550.791,0L549.409,3.505z M438.141,109.027c-3.167,2.124-6.352,4.42-9.473,6.825
		c-5.821,4.558-11.751,9.802-17.623,15.586c-5.088,5.012-10.501,10.678-16.548,17.323c-2.034,2.225-4.055,4.471-6.081,6.724
		c-2.537,2.821-5.14,5.717-7.786,8.582c2.775-5.852,6.06-11.851,9.982-18.235c4.663-7.504,9.334-14.05,14.279-20.01
		c5.566-6.725,11.44-12.698,17.463-17.759c6.059-5.14,13.012-9.903,20.667-14.159c7.544-4.217,15.425-7.78,22.145-10.712
		c2.131-0.948,4.271-1.855,6.407-2.76c1.578-0.667,3.154-1.334,4.713-2.013c3.693-1.54,7.19-3.157,10.695-4.944
		c7.729-3.982,14.163-8.185,19.673-12.85c5.704-4.91,9.731-9.425,12.585-14.165c-0.637,2.068-1.563,4.268-2.806,6.688
		c-1.731,3.425-3.993,6.794-6.917,10.299c-4.963,5.947-11.281,11.469-18.778,16.412c-3.251,2.149-6.873,4.271-10.764,6.306
		l-2.147,1.118c-2.827,1.474-5.753,2.999-8.645,4.433l-1.616,0.821c-6.789,3.444-13.201,6.698-19.474,10.317
		C444.891,104.688,441.637,106.706,438.141,109.027z"/>
</g>
</svg>
