<svg width="24" height="24" viewBox="0 0 24 24" fill="none" xmlns="http://www.w3.org/2000/svg">
<path d="M20.2502 3.98438H18.844C18.7409 3.98438 18.6565 4.06875 18.6565 4.17188V16.3125H7.26586V14.6016C7.26586 14.4445 7.08305 14.3555 6.96118 14.4539L3.63539 17.0789C3.61298 17.0964 3.59486 17.1189 3.5824 17.1444C3.56993 17.17 3.56345 17.1981 3.56345 17.2266C3.56345 17.255 3.56993 17.2831 3.5824 17.3087C3.59486 17.3343 3.61298 17.3567 3.63539 17.3742L6.96118 19.9992C7.08539 20.0977 7.26586 20.0086 7.26586 19.8516V18.0938H18.9377C19.7651 18.0938 20.4377 17.4211 20.4377 16.5938V4.17188C20.4377 4.06875 20.3534 3.98438 20.2502 3.98438Z" fill="#222B45"/>
</svg>
