<svg width="56" height="58" viewBox="0 0 56 58" fill="none" xmlns="http://www.w3.org/2000/svg">
<path d="M55.3427 25.3516H49.0146C48.6552 25.3516 48.3114 25.5078 48.0693 25.7812L30.9677 45.4922V1.5C30.9677 1.15625 30.6864 0.875 30.3427 0.875H25.6552C25.3114 0.875 25.0302 1.15625 25.0302 1.5V45.4922L7.92862 25.7812C7.69425 25.5078 7.3505 25.3516 6.98331 25.3516H0.655185C0.123935 25.3516 -0.165127 25.9844 0.186435 26.3828L26.1161 56.2656C26.3505 56.536 26.6403 56.7529 26.9658 56.9015C27.2913 57.0501 27.645 57.127 28.0028 57.127C28.3607 57.127 28.7144 57.0501 29.0399 56.9015C29.3654 56.7529 29.6552 56.536 29.8896 56.2656L55.8114 26.3828C56.163 25.9766 55.8739 25.3516 55.3427 25.3516Z" fill="#61BAF4"/>
</svg>
