<svg width="58" height="56" viewBox="0 0 58 56" fill="none" xmlns="http://www.w3.org/2000/svg">
<path d="M56.8906 26.1094L27.375 0.492187C27.1484 0.296875 26.8594 0.1875 26.5547 0.1875H19.6406C19.0625 0.1875 18.7969 0.90625 19.2344 1.28125L46.5938 25.0312H0.875C0.53125 25.0312 0.25 25.3125 0.25 25.6562V30.3438C0.25 30.6875 0.53125 30.9688 0.875 30.9688H46.5859L19.2266 54.7188C18.7891 55.1016 19.0547 55.8125 19.6328 55.8125H26.7813C26.9297 55.8125 27.0781 55.7578 27.1875 55.6562L56.8906 29.8906C57.1611 29.6554 57.3779 29.365 57.5265 29.0388C57.6751 28.7127 57.752 28.3584 57.752 28C57.752 27.6416 57.6751 27.2873 57.5265 26.9612C57.3779 26.635 57.1611 26.3446 56.8906 26.1094Z" fill="#61BAF4"/>
</svg>
