<svg width="56" height="58" viewBox="0 0 56 58" fill="none" xmlns="http://www.w3.org/2000/svg">
<path d="M55.813 31.6205L29.8833 1.73765C29.6489 1.46725 29.3591 1.25039 29.0336 1.10177C28.7081 0.95314 28.3544 0.876221 27.9966 0.876221C27.6387 0.876221 27.2851 0.95314 26.9595 1.10177C26.634 1.25039 26.3442 1.46725 26.1098 1.73765L0.187972 31.6205C0.109641 31.7105 0.0588513 31.8212 0.0416531 31.9393C0.0244549 32.0575 0.0415728 32.178 0.0909676 32.2867C0.140362 32.3954 0.219952 32.4876 0.320257 32.5523C0.420562 32.617 0.537354 32.6515 0.656722 32.6517H6.98485C7.34422 32.6517 7.68797 32.4955 7.93016 32.222L25.0317 12.5111V56.5033C25.0317 56.847 25.313 57.1283 25.6567 57.1283H30.3442C30.688 57.1283 30.9692 56.847 30.9692 56.5033V12.5111L48.0708 32.222C48.3052 32.4955 48.6489 32.6517 49.0161 32.6517H55.3442C55.8755 32.6517 56.1645 32.0267 55.813 31.6205Z" fill="#61BAF4"/>
</svg>
