<svg width="68" height="64" viewBox="0 0 68 64" fill="none" xmlns="http://www.w3.org/2000/svg">
<path d="M64.9456 22.5854L45.1096 19.7025L36.2425 1.72598C36.0003 1.23379 35.6018 0.835356 35.1096 0.593169C33.8753 -0.0162064 32.3753 0.491606 31.7581 1.72598L22.8909 19.7025L3.05496 22.5854C2.50808 22.6635 2.00808 22.9213 1.62527 23.3119C1.16247 23.7876 0.907446 24.4275 0.916236 25.0912C0.925025 25.7548 1.19691 26.3877 1.67214 26.851L16.0237 40.8432L12.6331 60.601C12.5536 61.0606 12.6044 61.5333 12.7799 61.9655C12.9554 62.3976 13.2484 62.772 13.6258 63.0461C14.0032 63.3202 14.4499 63.4831 14.9151 63.5163C15.3804 63.5494 15.8456 63.4516 16.2581 63.2338L34.0003 53.9057L51.7425 63.2338C52.2268 63.4916 52.7893 63.5775 53.3284 63.4838C54.6878 63.2494 55.6018 61.9604 55.3675 60.601L51.9768 40.8432L66.3284 26.851C66.719 26.4682 66.9768 25.9682 67.055 25.4213C67.2659 24.0541 66.3128 22.7885 64.9456 22.5854ZM45.9378 38.8744L48.7581 55.3041L34.0003 47.5541L19.2425 55.3119L22.0628 38.8822L10.1253 27.2416L26.6253 24.8432L34.0003 9.89786L41.3753 24.8432L57.8753 27.2416L45.9378 38.8744Z" fill="#F4B56A"/>
</svg>
