<svg width="24" height="24" viewBox="0 0 24 24" fill="none" xmlns="http://www.w3.org/2000/svg">
<path d="M11.9859 2.90638C6.80859 2.91341 2.625 7.10169 2.625 12.279C2.625 15.279 4.03594 17.9509 6.22969 19.6665L5.35078 20.7915C5.25469 20.9158 5.34375 21.0962 5.49844 21.0939L9.4125 21.0751C9.53438 21.0751 9.62344 20.9603 9.59297 20.8431L8.66719 17.0392C8.65883 17.0049 8.64096 16.9737 8.61564 16.9491C8.59031 16.9245 8.55857 16.9076 8.52404 16.9002C8.48952 16.8929 8.45363 16.8954 8.42049 16.9076C8.38735 16.9197 8.35831 16.941 8.33672 16.9689L7.38281 18.19C7.14375 18.0025 6.91406 17.7986 6.69609 17.5806C6.01083 16.8977 5.46477 16.0882 5.08828 15.197C4.69688 14.2736 4.5 13.2915 4.5 12.279C4.5 11.2665 4.69688 10.2845 5.08828 9.36107C5.46563 8.4681 6.00703 7.66654 6.69609 6.97747C7.38516 6.28841 8.18672 5.74701 9.07969 5.36966C10.0055 4.97826 10.9875 4.78138 12 4.78138C13.0125 4.78138 13.9945 4.97826 14.918 5.36966C15.8109 5.74701 16.6125 6.28841 17.3016 6.97747C17.9906 7.66654 18.532 8.4681 18.9094 9.36107C19.3008 10.2845 19.4977 11.2665 19.4977 12.279C19.4977 13.2915 19.3008 14.2736 18.9094 15.197C18.5329 16.0882 17.9868 16.8977 17.3016 17.5806C17.1258 17.7564 16.943 17.9204 16.7531 18.0775C16.7151 18.1084 16.6908 18.153 16.6855 18.2018C16.6803 18.2505 16.6944 18.2993 16.725 18.3376L17.6484 19.5212C17.7141 19.6033 17.8336 19.6173 17.9156 19.5517C20.0273 17.8314 21.375 15.2134 21.375 12.279C21.375 7.09701 17.1703 2.89935 11.9859 2.90638Z" fill="#556181"/>
</svg>
