<svg width="24" height="24" viewBox="0 0 24 24" fill="none" xmlns="http://www.w3.org/2000/svg">
<path d="M6.79682 5.53925L7.82573 4.51035C7.85051 4.48544 7.86781 4.45408 7.87565 4.41983C7.88349 4.38558 7.88157 4.34982 7.87009 4.31661C7.85861 4.2834 7.83805 4.25408 7.81073 4.23198C7.78341 4.20988 7.75045 4.19589 7.71557 4.1916L3.96088 3.74863C3.84135 3.73457 3.73823 3.83535 3.75229 3.95722L4.19526 7.71191C4.21401 7.8666 4.40385 7.93222 4.51401 7.82207L5.53823 6.79785L8.67182 9.9291C8.74448 10.0018 8.86401 10.0018 8.93667 9.9291L9.93042 8.93769C10.0031 8.86503 10.0031 8.7455 9.93042 8.67285L6.79682 5.53925ZM15.0632 9.9291C15.1359 10.0018 15.2554 10.0018 15.3281 9.9291L18.4617 6.79785L19.4859 7.82207C19.5108 7.84685 19.5422 7.86415 19.5764 7.87199C19.6107 7.87983 19.6464 7.8779 19.6796 7.86643C19.7128 7.85495 19.7422 7.83438 19.7643 7.80707C19.7864 7.77975 19.8003 7.74678 19.8046 7.71191L20.2476 3.95957C20.2617 3.84003 20.1609 3.73691 20.039 3.75097L16.2843 4.19394C16.1296 4.21269 16.064 4.40253 16.1742 4.51269L17.2031 5.5416L14.0695 8.6705C14.0346 8.70574 14.015 8.75333 14.015 8.80293C14.015 8.85252 14.0346 8.90011 14.0695 8.93535L15.0632 9.9291ZM19.8046 16.2853C19.7859 16.1307 19.596 16.065 19.4859 16.1752L18.4617 17.1994L15.3281 14.0682C15.2928 14.0333 15.2452 14.0137 15.1956 14.0137C15.1461 14.0137 15.0985 14.0333 15.0632 14.0682L14.0695 15.0596C14.0346 15.0948 14.015 15.1424 14.015 15.192C14.015 15.2416 14.0346 15.2892 14.0695 15.3244L17.2031 18.458L16.1742 19.4869C16.1494 19.5118 16.1321 19.5432 16.1242 19.5774C16.1164 19.6117 16.1183 19.6474 16.1298 19.6806C16.1413 19.7139 16.1618 19.7432 16.1892 19.7653C16.2165 19.7874 16.2494 19.8014 16.2843 19.8057L20.039 20.2486C20.1585 20.2627 20.2617 20.1619 20.2476 20.04L19.8046 16.2853ZM8.93667 14.0682C8.90142 14.0333 8.85384 14.0137 8.80424 14.0137C8.75465 14.0137 8.70706 14.0333 8.67182 14.0682L5.53823 17.1994L4.51401 16.1752C4.4891 16.1504 4.45774 16.1331 4.42349 16.1253C4.38924 16.1174 4.35348 16.1194 4.32027 16.1308C4.28706 16.1423 4.25774 16.1629 4.23564 16.1902C4.21354 16.2175 4.19955 16.2505 4.19526 16.2853L3.75229 20.0377C3.73823 20.1572 3.83901 20.2603 3.96088 20.2463L7.71557 19.8033C7.87026 19.7846 7.93588 19.5947 7.82573 19.4846L6.79682 18.458L9.93042 15.3268C10.0031 15.2541 10.0031 15.1346 9.93042 15.0619L8.93667 14.0682Z" fill="#556181"/>
</svg>
