<?xml version="1.0" encoding="UTF-8" standalone="no"?><!DOCTYPE svg PUBLIC "-//W3C//DTD SVG 1.1//EN" "http://www.w3.org/Graphics/SVG/1.1/DTD/svg11.dtd"><svg width="100%" height="100%" viewBox="0 0 2500 2000" version="1.1" xmlns="http://www.w3.org/2000/svg" xmlns:xlink="http://www.w3.org/1999/xlink" xml:space="preserve" xmlns:serif="http://www.serif.com/" style="fill-rule:evenodd;clip-rule:evenodd;stroke-linejoin:round;stroke-miterlimit:2;"><path d="M1266.49,1705.78c-10.965,-3.162 -22.592,-3.224 -33.59,-0.178c-63.961,18.086 -129.671,42.801 -209.367,21.255c-525.601,-142.095 -764.587,-1440.32 218.438,-1181.3c5.331,1.41 10.923,1.525 16.308,0.334c1064.4,-234.483 652.286,1083.82 231.591,1179.6c-3.808,0.846 -7.675,1.406 -11.568,1.675c-86.542,6.018 -128.484,2.729 -211.812,-21.386Z" style="fill:#ca1f17;"/><path d="M1090.24,333.429c33.42,24.458 61.218,50.42 84.024,79.629c24.939,31.942 44.434,65.855 59.471,102.917c2.476,8.27 11.2,12.974 19.469,10.499c8.27,-2.476 12.974,-11.199 10.498,-19.469c-8.585,-43.179 -22.785,-83.824 -43.136,-123.516c-19.565,-38.161 -45.465,-73.749 -78.127,-108.819c-16.215,-14.405 -41.075,-12.935 -55.479,3.28c-14.405,16.215 -12.935,41.075 3.28,55.479Z"/><path d="M1286.85,497.061c11.623,-39.11 19.127,-71.757 27.11,-98.982c35.49,-121.023 161.437,-128.1 286.107,-133.32c15.444,151.13 -163.239,271.084 -313.217,232.302Z" style="fill:#57b948;"/></svg>