<svg width="18" height="17" viewBox="0 0 18 17" fill="none" xmlns="http://www.w3.org/2000/svg">
<path d="M8.99302 2.14195C7.15302 2.14195 5.80369 2.64795 4.94502 3.65995C4.08636 4.65662 3.65702 6.02895 3.65702 7.77695C3.65702 9.31028 3.94069 10.698 4.50802 11.94C5.07536 13.182 6.07202 14.3166 7.49802 15.344V17H0.874023V15.183H4.96802C3.98669 14.4316 3.15869 13.4273 2.48402 12.17C1.80936 10.9126 1.47202 9.42528 1.47202 7.70795C1.47202 6.20528 1.76336 4.90195 2.34602 3.79795C2.92869 2.69395 3.77969 1.84295 4.89902 1.24495C6.03369 0.631618 7.39836 0.324951 8.99302 0.324951C10.6184 0.324951 11.9907 0.623951 13.11 1.22195C14.2294 1.81995 15.0804 2.67095 15.663 3.77495C16.2457 4.87895 16.537 6.18228 16.537 7.68495C16.537 9.40228 16.1997 10.8973 15.525 12.17C14.8657 13.4273 14.0454 14.4316 13.064 15.183H17.135V17H10.511V15.344C11.937 14.332 12.9337 13.1973 13.501 11.94C14.0837 10.6826 14.375 9.29495 14.375 7.77695C14.375 6.02895 13.938 4.65662 13.064 3.65995C12.2054 2.64795 10.8484 2.14195 8.99302 2.14195Z" fill="#556181"/>
</svg>
