<svg width="70" height="48" viewBox="0 0 70 48" fill="none" xmlns="http://www.w3.org/2000/svg">
<path d="M58.3906 16.7109C54.8125 7.27344 45.6953 0.5625 35.0156 0.5625C24.3359 0.5625 15.2188 7.26562 11.6406 16.7031C4.94531 18.4609 0 24.5547 0 31.8125C0 40.4453 6.99219 47.4375 15.6172 47.4375H54.3828C63.0078 47.4375 70 40.4453 70 31.8125C70 24.5703 65.0703 18.4766 58.3906 16.7109ZM61.2266 38.6641C60.33 39.5658 59.2635 40.2808 58.0888 40.7676C56.914 41.2544 55.6544 41.5033 54.3828 41.5H15.6172C13.0312 41.5 10.6016 40.4922 8.77344 38.6641C7.87153 37.766 7.15653 36.6981 6.66977 35.5221C6.183 34.3461 5.93412 33.0853 5.9375 31.8125C5.9375 29.625 6.64844 27.5703 7.98438 25.8516C9.29263 24.1866 11.104 22.989 13.1484 22.4375L16.1094 21.6641L17.1953 18.8047C17.8672 17.0234 18.8047 15.3594 19.9844 13.8516C21.149 12.3571 22.5286 11.0434 24.0781 9.95313C27.2891 7.69531 31.0703 6.5 35.0156 6.5C38.9609 6.5 42.7422 7.69531 45.9531 9.95313C47.5078 11.0469 48.8828 12.3594 50.0469 13.8516C51.2266 15.3594 52.1641 17.0312 52.8359 18.8047L53.9141 21.6562L56.8672 22.4375C61.1094 23.5703 64.0625 27.4219 64.0625 31.8125C64.0625 34.3984 63.0547 36.8359 61.2266 38.6641Z" fill="#79C796"/>
</svg>
