<svg width="24" height="24" viewBox="0 0 24 24" fill="none" xmlns="http://www.w3.org/2000/svg">
<path d="M16.0713 3.4187L17.8033 4.4187L8.0827 21.2553L6.35065 20.2553L16.0713 3.4187Z" fill="#556181"/>
<path d="M3.51199 9.65595H5.19199V5.24595C5.19199 5.02995 5.19799 4.80395 5.20999 4.56795L4.21999 5.38995C4.15599 5.44195 4.09199 5.47995 4.02799 5.50395C3.96399 5.52395 3.90199 5.53395 3.84199 5.53395C3.73799 5.53395 3.64399 5.51195 3.55999 5.46795C3.47999 5.41995 3.41999 5.36995 3.37999 5.31795L2.79199 4.53795L5.51599 2.25195H7.05199V9.65595H8.49199V11H3.51199V9.65595Z" fill="#556181"/>
<path d="M18.6125 13.1621C19.0445 13.1621 19.4325 13.2261 19.7765 13.3541C20.1245 13.4781 20.4205 13.6521 20.6645 13.8761C20.9085 14.1001 21.0945 14.3681 21.2225 14.6801C21.3545 14.9881 21.4205 15.3281 21.4205 15.7001C21.4205 16.0201 21.3745 16.3161 21.2825 16.5881C21.1945 16.8601 21.0725 17.1201 20.9165 17.3681C20.7605 17.6121 20.5785 17.8501 20.3705 18.0821C20.1665 18.3101 19.9485 18.5421 19.7165 18.7781L18.0065 20.5301C18.2265 20.4661 18.4425 20.4161 18.6545 20.3801C18.8705 20.3401 19.0725 20.3201 19.2605 20.3201H20.8925C21.0925 20.3201 21.2505 20.3761 21.3665 20.4881C21.4825 20.5961 21.5405 20.7401 21.5405 20.9201V22.0001H15.3965V21.4001C15.3965 21.2841 15.4205 21.1601 15.4685 21.0281C15.5165 20.8961 15.6005 20.7761 15.7205 20.6681L18.2405 18.1301C18.4565 17.9141 18.6445 17.7081 18.8045 17.5121C18.9645 17.3161 19.0965 17.1241 19.2005 16.9361C19.3045 16.7441 19.3825 16.5541 19.4345 16.3661C19.4865 16.1741 19.5125 15.9721 19.5125 15.7601C19.5125 15.4121 19.4285 15.1461 19.2605 14.9621C19.0965 14.7741 18.8445 14.6801 18.5045 14.6801C18.3645 14.6801 18.2365 14.7001 18.1205 14.7401C18.0045 14.7801 17.9005 14.8341 17.8085 14.9021C17.7165 14.9701 17.6365 15.0501 17.5685 15.1421C17.5045 15.2341 17.4525 15.3341 17.4125 15.4421C17.3485 15.6221 17.2665 15.7521 17.1665 15.8321C17.0705 15.9121 16.9385 15.9521 16.7705 15.9521C16.7305 15.9521 16.6865 15.9501 16.6385 15.9461C16.5945 15.9421 16.5485 15.9361 16.5005 15.9281L15.5165 15.7541C15.5805 15.3181 15.7025 14.9381 15.8825 14.6141C16.0665 14.2901 16.2925 14.0201 16.5605 13.8041C16.8325 13.5881 17.1425 13.4281 17.4905 13.3241C17.8385 13.2161 18.2125 13.1621 18.6125 13.1621Z" fill="#556181"/>
</svg>
