<svg width="68" height="64" viewBox="0 0 68 64" fill="none" xmlns="http://www.w3.org/2000/svg">
<path d="M45.1096 19.7025L64.9456 22.5854C66.3128 22.7885 67.2659 24.0541 67.055 25.4213C66.9768 25.9682 66.719 26.4682 66.3284 26.851L51.9768 40.8432L55.3675 60.601C55.6018 61.9604 54.6878 63.2494 53.3284 63.4838C52.7893 63.5775 52.2268 63.4916 51.7425 63.2338L34.0003 53.9057L16.2581 63.2338C15.8456 63.4516 15.3804 63.5494 14.9151 63.5163C14.4499 63.4831 14.0032 63.3202 13.6258 63.0461C13.2484 62.772 12.9554 62.3976 12.7799 61.9655C12.6044 61.5333 12.5536 61.0606 12.6331 60.601L16.0237 40.8432L1.67214 26.851C1.19691 26.3877 0.925025 25.7548 0.916236 25.0912C0.907446 24.4275 1.16247 23.7876 1.62527 23.3119C2.00808 22.9213 2.50808 22.6635 3.05496 22.5854L22.8909 19.7025L31.7581 1.72598C32.3753 0.491606 33.8753 -0.0162064 35.1096 0.593169C35.6018 0.835356 36.0003 1.23379 36.2425 1.72598L45.1096 19.7025Z" fill="#F4B56A"/>
</svg>
