<svg width="24" height="24" viewBox="0 0 24 24" fill="none" xmlns="http://www.w3.org/2000/svg">
<path d="M21.2837 8.27559L15.3329 7.41075L12.6727 2.01778C12.6001 1.87013 12.4805 1.75059 12.3329 1.67794C11.9626 1.49513 11.5126 1.64747 11.3274 2.01778L8.66726 7.41075L2.71648 8.27559C2.55242 8.29903 2.40242 8.37638 2.28757 8.49356C2.14873 8.63627 2.07223 8.82825 2.07486 9.02733C2.0775 9.22642 2.15907 9.41631 2.30164 9.55528L6.60711 13.7529L5.58992 19.6803C5.56606 19.8182 5.58132 19.96 5.63396 20.0896C5.6866 20.2193 5.77452 20.3316 5.88773 20.4138C6.00095 20.496 6.13495 20.5449 6.27453 20.5549C6.4141 20.5648 6.55368 20.5355 6.67742 20.4701L12.0001 17.6717L17.3227 20.4701C17.468 20.5475 17.6368 20.5732 17.7985 20.5451C18.2063 20.4748 18.4805 20.0881 18.4102 19.6803L17.393 13.7529L21.6985 9.55528C21.8157 9.44044 21.893 9.29044 21.9165 9.12638C21.9798 8.71622 21.6938 8.33653 21.2837 8.27559Z" fill="#556181"/>
</svg>
