<?xml version="1.0" encoding="utf-8"?>
<!-- Generator: Adobe Illustrator 15.0.0, SVG Export Plug-In . SVG Version: 6.00 Build 0)  -->
<!DOCTYPE svg PUBLIC "-//W3C//DTD SVG 1.1//EN" "http://www.w3.org/Graphics/SVG/1.1/DTD/svg11.dtd">
<svg version="1.1" xmlns="http://www.w3.org/2000/svg" xmlns:xlink="http://www.w3.org/1999/xlink" x="0px" y="0px"
	 width="802.585px" height="701.12px" viewBox="0 0 802.585 701.12" enable-background="new 0 0 802.585 701.12"
	 xml:space="preserve">
<g id="Layer_1">
	<path fill="#FC0000" d="M632.471,331.415c-0.032,0.076-0.072,0.151-0.105,0.228C632.432,331.498,632.471,331.415,632.471,331.415z
		 M700.595,516.619c-16.512,35.828-32.928,59.375-32.928,59.375c-97.953,146.931-306.102,123.8-306.102,123.8
		c-55.779-9.524-144.207-8.161-183.661-12.245c-39.453-4.085-126.522-21.766-161.895-74.823
		c-35.373-53.057-6.802-160.534,34.012-209.511c40.814-48.977,70.744-95.232,70.744-95.232
		C253.832,101.218,379.182,78.519,433.106,79.952c3.241,2.248,6.752,4.376,10.636,6.318c53.717,26.858,72.434,34.182,78.941,40.692
		c0,0-37.581-15.286-69.1-0.113c-31.518,15.175-73.832,37.354-84.044,42.897c0,0,52.523-8.756,96.591,13.423
		c44.064,22.177,107.395,60.116,111.479,59.241c0,0-69.16,23.637-90.173,77.625c-21.012,53.988-30.059,58.072-32.393,60.406
		c0,0,23.343-12.841,53.985-6.128c30.559,6.693,111.038-14.473,123.336-42.67c-1.104,2.442-10.973,25.813-10.695,81.189
		c0,0,0,84.916-22.758,110.016c0,0-13.927,16.372-32.121,22.112c-2.943,0.807-4.65,1.23-4.65,1.23c1.582-0.315,3.123-0.75,4.65-1.23
		c15.14-4.142,63.571-18.556,87.272-39.331c0,0,30.063-18.674,29.184-68.278c0,0,1.133,31.525,13.432,65.762
		C698.296,507.612,699.576,512.126,700.595,516.619z M462.236,228.463c14.576,19.233,35.144-20.489,35.144-20.489
		C481.926,202.363,450.274,212.679,462.236,228.463z M377.134,139.3c14.576,19.234,35.143-20.488,35.143-20.488
		C396.823,113.2,365.172,123.516,377.134,139.3z M95.363,567.288c-15.455-5.611-47.105,4.705-35.144,20.489
		C74.795,607.011,95.363,567.288,95.363,567.288z M114.255,462.579c-15.454-5.611-47.105,4.705-35.143,20.489
		C93.688,502.302,114.255,462.579,114.255,462.579z M327.252,278.281c14.578,19.237,35.145-20.487,35.145-20.487
		C346.943,252.183,315.292,262.5,327.252,278.281z M289.466,187.651c14.578,19.237,35.145-20.487,35.145-20.487
		C309.157,161.553,277.506,171.871,289.466,187.651z M213.852,380.263c14.576,19.233,35.143-20.488,35.143-20.488
		C233.541,354.163,201.89,364.479,213.852,380.263z M176.065,291.928c14.576,19.234,35.143-20.488,35.143-20.488
		C195.754,265.828,164.104,276.144,176.065,291.928z M159.426,367.112c-15.455-5.611-47.105,4.704-35.144,20.488
		C138.859,406.836,159.426,367.112,159.426,367.112z M197.212,553.642c-15.454-5.612-47.105,4.704-35.143,20.488
		C176.645,593.363,197.212,553.642,197.212,553.642z M216.105,636.033c-15.454-5.612-47.105,4.704-35.143,20.488
		C195.538,675.755,216.105,636.033,216.105,636.033z M253.891,470.963c-15.454-5.612-47.105,4.704-35.143,20.488
		C233.323,510.685,253.891,470.963,253.891,470.963z M314.225,587.422c-15.454-5.611-47.105,4.704-35.143,20.488
		C293.658,627.145,314.225,587.422,314.225,587.422z M343.504,359.774c-15.454-5.612-47.105,4.704-35.143,20.488
		C322.937,399.496,343.504,359.774,343.504,359.774z M367.683,484.609c-15.455-5.611-47.105,4.705-35.144,20.489
		C347.115,524.332,367.683,484.609,367.683,484.609z M410.521,305.573c14.576,19.233,35.144-20.489,35.144-20.489
		C430.209,279.473,398.559,289.789,410.521,305.573z M425.896,400.347c-15.454-5.612-47.104,4.704-35.143,20.488
		C405.328,440.068,425.896,400.347,425.896,400.347z M444.789,622.386c-15.454-5.611-47.105,4.704-35.144,20.488
		C424.222,662.108,444.789,622.386,444.789,622.386z M464.557,517.031c-15.454-5.611-47.105,4.705-35.144,20.488
		C443.989,556.754,464.557,517.031,464.557,517.031z M538.042,428.54c14.575,19.234,35.143-20.488,35.143-20.488
		C557.73,402.44,526.08,412.756,538.042,428.54z M573.185,560.131c-15.454-5.611-47.104,4.705-35.143,20.489
		C552.617,599.854,573.185,560.131,573.185,560.131z"/>
</g>
<g id="Layer_2">
	<path fill="#26A008" d="M695.503,265.166c20.428,44.649,15.727,74.925,22.468,95.134c6.928,20.757,26.502,44.177,26.502,44.177
		c27.137,34.545,9.649,77.559,5.084,102.701c-3.553,19.542-53.896,96.605-53.896,96.605c0.502-7.351,17.466-54.868,1.018-100.671
		c-12.299-34.236-13.432-65.762-13.432-65.762c0.879,49.604-29.184,68.278-29.184,68.278
		c-23.472,20.575-71.221,34.917-86.847,39.216c17.988-5.858,31.695-21.997,31.695-21.997c22.758-25.1,22.758-110.016,22.758-110.016
		c-0.277-55.376,9.591-78.747,10.695-81.189c-12.298,28.197-92.777,49.363-123.336,42.67c-30.643-6.713-53.985,6.128-53.985,6.128
		c2.334-2.334,11.381-6.418,32.393-60.406c21.013-53.988,90.173-77.625,90.173-77.625c-4.084,0.875-67.414-37.063-111.479-59.241
		c-44.068-22.179-96.591-13.423-96.591-13.423c10.212-5.543,52.527-27.723,84.044-42.897c31.519-15.173,69.1,0.113,69.1,0.113
		c-6.508-6.51-25.225-13.833-78.941-40.692C390.025,59.411,400.609,0,400.609,0c15.889,9.505,30.253,20.553,45.872,26.326
		c71.226,26.312,120.152,59.129,120.152,59.129c-1.861-11.826-10.162-27.638-0.997-40.956c7.688-11.171,8.136-39.658,8.136-39.658
		s41.537,42.067,41.555,58.981c0.032,28.011,4.202,72.196,4.202,72.196s5.967,25.424,24.269,38.655
		c18.298,13.231,27.011,37.749,27.011,37.749c22.787-0.814,111.496-52.898,111.496-52.898c25.523,5.836,19.711,33.559,19.711,33.559
		s-98.926,65.076-103.888,68.286C693.165,264.578,695.503,265.166,695.503,265.166z M567.217,544.845
		c-3.219,0.886-5.076,1.346-5.076,1.346C563.865,545.846,565.558,545.386,567.217,544.845z"/>
</g>
</svg>
