<svg width="24" height="24" viewBox="0 0 24 24" fill="none" xmlns="http://www.w3.org/2000/svg">
<path d="M18.125 6.9375V3.9375C18.125 3.83437 18.0406 3.75 17.9375 3.75H5.1875C5.08437 3.75 5 3.83437 5 3.9375V6.9375C5 7.04063 5.08437 7.125 5.1875 7.125H6.5C6.60312 7.125 6.6875 7.04063 6.6875 6.9375V5.4375H10.625V18.5625H8.46875C8.36562 18.5625 8.28125 18.6469 8.28125 18.75V20.0625C8.28125 20.1656 8.36562 20.25 8.46875 20.25H14.6562C14.7594 20.25 14.8438 20.1656 14.8438 20.0625V18.75C14.8438 18.6469 14.7594 18.5625 14.6562 18.5625H12.5V5.4375H16.4375V6.9375C16.4375 7.04063 16.5219 7.125 16.625 7.125H17.9375C18.0406 7.125 18.125 7.04063 18.125 6.9375Z" fill="#556181"/>
</svg>
